<?xml version="1.0" encoding="UTF-8" standalone="no"?>
<!DOCTYPE svg PUBLIC "-//W3C//DTD SVG 1.1//EN"
 "http://www.w3.org/Graphics/SVG/1.1/DTD/svg11.dtd">
<!-- Generated by graphviz version 13.0.1 (20250615.1724)
 -->
<!-- Title: detail::binary_reader::get_msgpack_string Pages: 1 -->
<!--zoomable 299 -->

<svg id="main" version="1.1" xmlns="http://www.w3.org/2000/svg" xmlns:xlink="http://www.w3.org/1999/xlink" xml:space="preserve" onload="init(evt)">

<style type="text/css"><![CDATA[
.node, .edge {opacity: 0.7;}
.node.selected, .edge.selected {opacity: 1;}
.edge:hover path { stroke: red; }
.edge:hover polygon { stroke: red; fill: red; }
]]></style>

<defs>
  <circle id="rim" cx="0" cy="0" r="7"/>
  <circle id="rim2" cx="0" cy="0" r="3.5"/>
  <g id="zoomPlus">
    <use xlink:href="#rim" fill="#404040"><set attributeName="fill" to="#808080" begin="zoomplus.mouseover" end="zoomplus.mouseout"/></use>
    <path d="M-4,0h8M0,-4v8" fill="none" stroke="white" stroke-width="1.5" pointer-events="none"/>
  </g>
  <g id="zoomMin">
    <use xlink:href="#rim" fill="#404040"><set attributeName="fill" to="#808080" begin="zoomminus.mouseover" end="zoomminus.mouseout"/></use>
    <path d="M-4,0h8" fill="none" stroke="white" stroke-width="1.5" pointer-events="none"/>
  </g>
  <g id="arrowUp" transform="translate(30 24)">
    <use xlink:href="#rim"/>
    <path pointer-events="none" fill="none" stroke="white" stroke-width="1.5" d="M0,-3.0v7 M-2.5,-0.5L0,-3.0L2.5,-0.5"/>
  </g>
  <g id="arrowRight" transform="rotate(90) translate(36 -43)">
    <use xlink:href="#rim"/>
    <path pointer-events="none" fill="none" stroke="white" stroke-width="1.5" d="M0,-3.0v7 M-2.5,-0.5L0,-3.0L2.5,-0.5"/>
  </g>
  <g id="arrowDown" transform="rotate(180) translate(-30 -48)">
    <use xlink:href="#rim"/>
    <path pointer-events="none" fill="none" stroke="white" stroke-width="1.5" d="M0,-3.0v7 M-2.5,-0.5L0,-3.0L2.5,-0.5"/>
  </g>
  <g id="arrowLeft" transform="rotate(270) translate(-36 17)">
    <use xlink:href="#rim"/>
    <path pointer-events="none" fill="none" stroke="white" stroke-width="1.5" d="M0,-3.0v7 M-2.5,-0.5L0,-3.0L2.5,-0.5"/>
  </g>
  <g id="resetDef">
    <use xlink:href="#rim2" fill="#404040"><set attributeName="fill" to="#808080" begin="reset.mouseover" end="reset.mouseout"/></use>
  </g>
</defs>
<script type="application/ecmascript">
var viewWidth = 986;
var viewHeight = 299;
var sectionId = 'dynsection-31';
</script>
<script type="application/ecmascript" xlink:href="svg.min.js"/>
<svg id="graph" class="graph">
<g id="viewport">
<title>detail::binary_reader::get_msgpack_string</title>
<!-- Node1 -->
<g id="Node000001" class="node">
<title>Node1</title>
<g id="a_Node000001"><a xlink:title="reads a MessagePack string">
<polygon fill="#999999" stroke="#666666" points="109.75,-166.5 0,-166.5 0,-136 109.75,-136 109.75,-166.5"/>
<text xml:space="preserve" text-anchor="start" x="8" y="-153" font-family="Helvetica,sans-Serif" font-size="10.00">detail::binary_reader</text>
<text xml:space="preserve" text-anchor="middle" x="54.88" y="-141.75" font-family="Helvetica,sans-Serif" font-size="10.00">::get_msgpack_string</text>
</a>
</g>
</g>
<!-- Node2 -->
<g id="Node000002" class="node">
<title>Node2</title>
<g id="a_Node000002"><a xlink:href="namespacedetail.html#a266fb3d4bf633ad6c506434cc91164da" target="_top" xlink:title=" ">
<polygon fill="white" stroke="#666666" points="826.88,-203.88 752.38,-203.88 752.38,-184.62 826.88,-184.62 826.88,-203.88"/>
<text xml:space="preserve" text-anchor="middle" x="789.62" y="-190.38" font-family="Helvetica,sans-Serif" font-size="10.00">detail::concat</text>
</a>
</g>
</g>
<!-- Node1&#45;&gt;Node2 -->
<g id="edge1_Node000001_Node000002" class="edge">
<title>Node1&#45;&gt;Node2</title>
<g id="a_edge1_Node000001_Node000002"><a xlink:title=" ">
<path fill="none" stroke="#63b8ff" d="M86.42,-166.83C103.52,-175.04 125.42,-184.73 145.75,-191.25 232.31,-219 255.22,-232.25 346.12,-232.25 346.12,-232.25 346.12,-232.25 500.25,-232.25 585.52,-232.25 683.78,-215.72 740.78,-204.46"/>
<polygon fill="#63b8ff" stroke="#63b8ff" points="741.36,-207.91 750.47,-202.51 739.98,-201.05 741.36,-207.91"/>
</a>
</g>
</g>
<!-- Node5 -->
<g id="Node000005" class="node">
<title>Node5</title>
<g id="a_Node000005"><a xlink:href="classdetail_1_1parse__error.html#a07046ea9f33d28f120af188ed674d6df" target="_top" xlink:title="create a parse error exception">
<polygon fill="white" stroke="#666666" points="546.25,-128.5 452.25,-128.5 452.25,-98 546.25,-98 546.25,-128.5"/>
<text xml:space="preserve" text-anchor="start" x="460.25" y="-115" font-family="Helvetica,sans-Serif" font-size="10.00">detail::parse_error</text>
<text xml:space="preserve" text-anchor="middle" x="499.25" y="-103.75" font-family="Helvetica,sans-Serif" font-size="10.00">::create</text>
</a>
</g>
</g>
<!-- Node1&#45;&gt;Node5 -->
<g id="edge4_Node000001_Node000005" class="edge">
<title>Node1&#45;&gt;Node5</title>
<g id="a_edge4_Node000001_Node000005"><a xlink:title=" ">
<path fill="none" stroke="#63b8ff" d="M68.87,-135.62C84.82,-117.79 113.73,-89.61 145.75,-78.25 246.97,-42.32 374.15,-71.71 444.76,-94.01"/>
<polygon fill="#63b8ff" stroke="#63b8ff" points="443.56,-97.3 454.15,-97.05 445.72,-90.64 443.56,-97.3"/>
</a>
</g>
</g>
<!-- Node11 -->
<g id="Node000011" class="node">
<title>Node11</title>
<g id="a_Node000011"><a xlink:href="classdetail_1_1binary__reader.html#a39c740811882a0023f6386858a5d5270" target="_top" xlink:title=" ">
<polygon fill="white" stroke="#666666" points="553.75,-290.5 444.75,-290.5 444.75,-260 553.75,-260 553.75,-290.5"/>
<text xml:space="preserve" text-anchor="start" x="452.75" y="-277" font-family="Helvetica,sans-Serif" font-size="10.00">detail::binary_reader</text>
<text xml:space="preserve" text-anchor="middle" x="499.25" y="-265.75" font-family="Helvetica,sans-Serif" font-size="10.00">::exception_message</text>
</a>
</g>
</g>
<!-- Node1&#45;&gt;Node11 -->
<g id="edge14_Node000001_Node000011" class="edge">
<title>Node1&#45;&gt;Node11</title>
<g id="a_edge14_Node000001_Node000011"><a xlink:title=" ">
<path fill="none" stroke="#63b8ff" d="M65.19,-166.72C79.44,-188.78 108.91,-228.56 145.75,-246.25 237.97,-290.52 359.43,-289.46 433.03,-283.31"/>
<polygon fill="#63b8ff" stroke="#63b8ff" points="433.27,-286.8 442.92,-282.42 432.64,-279.83 433.27,-286.8"/>
</a>
</g>
</g>
<!-- Node12 -->
<g id="Node000012" class="node">
<title>Node12</title>
<g id="a_Node000012"><a xlink:href="classdetail_1_1binary__reader.html#a809c1fd4598b7d4cecaf93aaf1547205" target="_top" xlink:title=" ">
<polygon fill="white" stroke="#666666" points="249.5,-166.5 145.75,-166.5 145.75,-136 249.5,-136 249.5,-166.5"/>
<text xml:space="preserve" text-anchor="start" x="153.75" y="-153" font-family="Helvetica,sans-Serif" font-size="10.00">detail::binary_reader</text>
<text xml:space="preserve" text-anchor="middle" x="197.62" y="-141.75" font-family="Helvetica,sans-Serif" font-size="10.00">::get_number</text>
</a>
</g>
</g>
<!-- Node1&#45;&gt;Node12 -->
<g id="edge16_Node000001_Node000012" class="edge">
<title>Node1&#45;&gt;Node12</title>
<g id="a_edge16_Node000001_Node000012"><a xlink:title=" ">
<path fill="none" stroke="#63b8ff" d="M109.89,-151.25C117.79,-151.25 125.99,-151.25 134.05,-151.25"/>
<polygon fill="#63b8ff" stroke="#63b8ff" points="133.79,-154.75 143.79,-151.25 133.79,-147.75 133.79,-154.75"/>
</a>
</g>
</g>
<!-- Node14 -->
<g id="Node000014" class="node">
<title>Node14</title>
<g id="a_Node000014"><a xlink:href="classdetail_1_1binary__reader.html#a86d19cc231aae395395030fd8ae19fd5" target="_top" xlink:title=" ">
<polygon fill="white" stroke="#666666" points="399,-166.5 295.25,-166.5 295.25,-136 399,-136 399,-166.5"/>
<text xml:space="preserve" text-anchor="start" x="303.25" y="-153" font-family="Helvetica,sans-Serif" font-size="10.00">detail::binary_reader</text>
<text xml:space="preserve" text-anchor="middle" x="347.12" y="-141.75" font-family="Helvetica,sans-Serif" font-size="10.00">::unexpect_eof</text>
</a>
</g>
</g>
<!-- Node1&#45;&gt;Node14 -->
<g id="edge26_Node000001_Node000014" class="edge">
<title>Node1&#45;&gt;Node14</title>
<g id="a_edge26_Node000001_Node000014"><a xlink:title=" ">
<path fill="none" stroke="#63b8ff" d="M105.33,-166.93C118.34,-170.37 132.46,-173.51 145.75,-175.25 191.47,-181.25 203.73,-180.85 249.5,-175.25 260.69,-173.88 272.46,-171.65 283.78,-169.09"/>
<polygon fill="#63b8ff" stroke="#63b8ff" points="284.52,-172.51 293.44,-166.78 282.9,-165.7 284.52,-172.51"/>
</a>
</g>
</g>
<!-- Node15 -->
<g id="Node000015" class="node">
<title>Node15</title>
<g id="a_Node000015"><a xlink:href="classdetail_1_1binary__reader.html#a0378b0788080dd6ba0eaaaa7aab855bf" target="_top" xlink:title="create a string by reading characters from the input">
<polygon fill="white" stroke="#666666" points="249.5,-117.5 145.75,-117.5 145.75,-87 249.5,-87 249.5,-117.5"/>
<text xml:space="preserve" text-anchor="start" x="153.75" y="-104" font-family="Helvetica,sans-Serif" font-size="10.00">detail::binary_reader</text>
<text xml:space="preserve" text-anchor="middle" x="197.62" y="-92.75" font-family="Helvetica,sans-Serif" font-size="10.00">::get_string</text>
</a>
</g>
</g>
<!-- Node1&#45;&gt;Node15 -->
<g id="edge22_Node000001_Node000015" class="edge">
<title>Node1&#45;&gt;Node15</title>
<g id="a_edge22_Node000001_Node000015"><a xlink:title=" ">
<path fill="none" stroke="#63b8ff" d="M100.8,-135.61C113.62,-131.15 127.75,-126.23 141.12,-121.57"/>
<polygon fill="#63b8ff" stroke="#63b8ff" points="141.93,-125 150.22,-118.41 139.62,-118.39 141.93,-125"/>
</a>
</g>
</g>
<!-- Node16 -->
<g id="Node000016" class="node">
<title>Node16</title>
<g id="a_Node000016"><a xlink:href="classdetail_1_1binary__reader.html#a2ef89c65a295e23efa6d7363fafc84cc" target="_top" xlink:title=" ">
<polygon fill="white" stroke="#666666" points="249.5,-31.5 145.75,-31.5 145.75,-1 249.5,-1 249.5,-31.5"/>
<text xml:space="preserve" text-anchor="start" x="153.75" y="-18" font-family="Helvetica,sans-Serif" font-size="10.00">detail::binary_reader</text>
<text xml:space="preserve" text-anchor="middle" x="197.62" y="-6.75" font-family="Helvetica,sans-Serif" font-size="10.00">::get_token_string</text>
</a>
</g>
</g>
<!-- Node1&#45;&gt;Node16 -->
<g id="edge25_Node000001_Node000016" class="edge">
<title>Node1&#45;&gt;Node16</title>
<g id="a_edge25_Node000001_Node000016"><a xlink:title=" ">
<path fill="none" stroke="#63b8ff" d="M66.36,-135.74C81.82,-113.67 112.52,-72.83 145.75,-45.25 148.78,-42.74 152.05,-40.32 155.42,-38.04"/>
<polygon fill="#63b8ff" stroke="#63b8ff" points="157.22,-41.04 163.81,-32.75 153.48,-35.12 157.22,-41.04"/>
</a>
</g>
</g>
<!-- Node3 -->
<g id="Node000003" class="node">
<title>Node3</title>
<g id="a_Node000003"><a xlink:href="namespacedetail.html#a89f967b745cf8df11ba9d59f93d97753" target="_top" xlink:title=" ">
<polygon fill="white" stroke="#666666" points="973,-221.88 877.5,-221.88 877.5,-202.62 973,-202.62 973,-221.88"/>
<text xml:space="preserve" text-anchor="middle" x="925.25" y="-208.38" font-family="Helvetica,sans-Serif" font-size="10.00">detail::concat_into</text>
</a>
</g>
</g>
<!-- Node2&#45;&gt;Node3 -->
<g id="edge2_Node000002_Node000003" class="edge">
<title>Node2&#45;&gt;Node3</title>
<g id="a_edge2_Node000002_Node000003"><a xlink:title=" ">
<path fill="none" stroke="#63b8ff" d="M827.14,-199.17C839.09,-200.78 852.69,-202.61 865.84,-204.38"/>
<polygon fill="#63b8ff" stroke="#63b8ff" points="865.36,-207.85 875.73,-205.71 866.29,-200.91 865.36,-207.85"/>
</a>
</g>
</g>
<!-- Node4 -->
<g id="Node000004" class="node">
<title>Node4</title>
<g id="a_Node000004"><a xlink:href="namespacedetail.html#ac185140ed8c8fcc07a302a890b714b0d" target="_top" xlink:title=" ">
<polygon fill="white" stroke="#666666" points="978.25,-184.88 872.25,-184.88 872.25,-165.62 978.25,-165.62 978.25,-184.88"/>
<text xml:space="preserve" text-anchor="middle" x="925.25" y="-171.38" font-family="Helvetica,sans-Serif" font-size="10.00">detail::concat_length</text>
</a>
</g>
</g>
<!-- Node2&#45;&gt;Node4 -->
<g id="edge3_Node000002_Node000004" class="edge">
<title>Node2&#45;&gt;Node4</title>
<g id="a_edge3_Node000002_Node000004"><a xlink:title=" ">
<path fill="none" stroke="#63b8ff" d="M827.14,-189.06C837.51,-187.58 849.12,-185.93 860.61,-184.3"/>
<polygon fill="#63b8ff" stroke="#63b8ff" points="861.09,-187.77 870.5,-182.89 860.11,-180.83 861.09,-187.77"/>
</a>
</g>
</g>
<!-- Node5&#45;&gt;Node2 -->
<g id="edge5_Node000005_Node000002" class="edge">
<title>Node5&#45;&gt;Node2</title>
<g id="a_edge5_Node000005_Node000002"><a xlink:title=" ">
<path fill="none" stroke="#63b8ff" d="M516.9,-128.76C533.83,-143.51 561.52,-164.93 589.75,-175.25 639.07,-193.28 699.62,-196.63 740.86,-196.36"/>
<polygon fill="#63b8ff" stroke="#63b8ff" points="740.76,-199.86 750.7,-196.21 740.65,-192.86 740.76,-199.86"/>
</a>
</g>
</g>
<!-- Node6 -->
<g id="Node000006" class="node">
<title>Node6</title>
<g id="a_Node000006"><a xlink:href="classdetail_1_1exception.html#a6b4a786b5c1c25dd3edaceb1bf2d5120" target="_top" xlink:title=" ">
<polygon fill="white" stroke="#666666" points="695,-79.5 601.75,-79.5 601.75,-49 695,-49 695,-79.5"/>
<text xml:space="preserve" text-anchor="start" x="609.75" y="-66" font-family="Helvetica,sans-Serif" font-size="10.00">detail::exception::</text>
<text xml:space="preserve" text-anchor="middle" x="648.38" y="-54.75" font-family="Helvetica,sans-Serif" font-size="10.00">diagnostics</text>
</a>
</g>
</g>
<!-- Node5&#45;&gt;Node6 -->
<g id="edge6_Node000005_Node000006" class="edge">
<title>Node5&#45;&gt;Node6</title>
<g id="a_edge6_Node000005_Node000006"><a xlink:title=" ">
<path fill="none" stroke="#63b8ff" d="M546.4,-97.88C560.5,-93.18 576.18,-87.96 590.89,-83.06"/>
<polygon fill="#63b8ff" stroke="#63b8ff" points="591.57,-86.52 599.96,-80.04 589.36,-79.88 591.57,-86.52"/>
</a>
</g>
</g>
<!-- Node7 -->
<g id="Node000007" class="node">
<title>Node7</title>
<g id="a_Node000007"><a xlink:href="classdetail_1_1exception.html#a8f1eb56b9964c8dd84d89d0da98d883b" target="_top" xlink:title=" ">
<polygon fill="white" stroke="#666666" points="707,-165.88 589.75,-165.88 589.75,-146.62 707,-146.62 707,-165.88"/>
<text xml:space="preserve" text-anchor="middle" x="648.38" y="-152.38" font-family="Helvetica,sans-Serif" font-size="10.00">detail::exception::name</text>
</a>
</g>
</g>
<!-- Node5&#45;&gt;Node7 -->
<g id="edge7_Node000005_Node000007" class="edge">
<title>Node5&#45;&gt;Node7</title>
<g id="a_edge7_Node000005_Node000007"><a xlink:title=" ">
<path fill="none" stroke="#63b8ff" d="M546.4,-126.74C564.18,-131.93 584.45,-137.86 602.15,-143.03"/>
<polygon fill="#63b8ff" stroke="#63b8ff" points="601.03,-146.35 611.61,-145.8 603,-139.63 601.03,-146.35"/>
</a>
</g>
</g>
<!-- Node8 -->
<g id="Node000008" class="node">
<title>Node8</title>
<g id="a_Node000008"><a xlink:href="classdetail_1_1parse__error.html#a7703a00cc97c4590e56254b62b479ff5" target="_top" xlink:title=" ">
<polygon fill="white" stroke="#666666" points="695.38,-30.5 601.38,-30.5 601.38,0 695.38,0 695.38,-30.5"/>
<text xml:space="preserve" text-anchor="start" x="609.38" y="-17" font-family="Helvetica,sans-Serif" font-size="10.00">detail::parse_error</text>
<text xml:space="preserve" text-anchor="middle" x="648.38" y="-5.75" font-family="Helvetica,sans-Serif" font-size="10.00">::parse_error</text>
</a>
</g>
</g>
<!-- Node5&#45;&gt;Node8 -->
<g id="edge9_Node000005_Node000008" class="edge">
<title>Node5&#45;&gt;Node8</title>
<g id="a_edge9_Node000005_Node000008"><a xlink:title=" ">
<path fill="none" stroke="#63b8ff" d="M516.37,-97.78C533.53,-81.89 562,-57.14 589.75,-40.25 592.15,-38.79 594.66,-37.36 597.22,-35.99"/>
<polygon fill="#63b8ff" stroke="#63b8ff" points="598.57,-39.23 605.93,-31.61 595.43,-32.97 598.57,-39.23"/>
</a>
</g>
</g>
<!-- Node10 -->
<g id="Node000010" class="node">
<title>Node10</title>
<g id="a_Node000010"><a xlink:href="classdetail_1_1parse__error.html#a19cdccb06cba79d7b4efc51f501ced8b" target="_top" xlink:title=" ">
<polygon fill="white" stroke="#666666" points="695.38,-128.5 601.38,-128.5 601.38,-98 695.38,-98 695.38,-128.5"/>
<text xml:space="preserve" text-anchor="start" x="609.38" y="-115" font-family="Helvetica,sans-Serif" font-size="10.00">detail::parse_error</text>
<text xml:space="preserve" text-anchor="middle" x="648.38" y="-103.75" font-family="Helvetica,sans-Serif" font-size="10.00">::position_string</text>
</a>
</g>
</g>
<!-- Node5&#45;&gt;Node10 -->
<g id="edge12_Node000005_Node000010" class="edge">
<title>Node5&#45;&gt;Node10</title>
<g id="a_edge12_Node000005_Node000010"><a xlink:title=" ">
<path fill="none" stroke="#63b8ff" d="M546.4,-113.25C560.1,-113.25 575.27,-113.25 589.61,-113.25"/>
<polygon fill="#63b8ff" stroke="#63b8ff" points="589.37,-116.75 599.37,-113.25 589.37,-109.75 589.37,-116.75"/>
</a>
</g>
</g>
<!-- Node7&#45;&gt;Node2 -->
<g id="edge8_Node000007_Node000002" class="edge">
<title>Node7&#45;&gt;Node2</title>
<g id="a_edge8_Node000007_Node000002"><a xlink:title=" ">
<path fill="none" stroke="#63b8ff" d="M686.33,-166.33C703.06,-170.9 723.05,-176.36 740.91,-181.23"/>
<polygon fill="#63b8ff" stroke="#63b8ff" points="739.96,-184.6 750.52,-183.85 741.8,-177.84 739.96,-184.6"/>
</a>
</g>
</g>
<!-- Node9 -->
<g id="Node000009" class="node">
<title>Node9</title>
<g id="a_Node000009"><a xlink:href="classdetail_1_1exception.html#a528d6bc77e88490bbb84cde2222b7ff0" target="_top" xlink:title=" ">
<polygon fill="white" stroke="#666666" points="836.25,-30.5 743,-30.5 743,0 836.25,0 836.25,-30.5"/>
<text xml:space="preserve" text-anchor="start" x="751" y="-17" font-family="Helvetica,sans-Serif" font-size="10.00">detail::exception::</text>
<text xml:space="preserve" text-anchor="middle" x="789.62" y="-5.75" font-family="Helvetica,sans-Serif" font-size="10.00">exception</text>
</a>
</g>
</g>
<!-- Node8&#45;&gt;Node9 -->
<g id="edge10_Node000008_Node000009" class="edge">
<title>Node8&#45;&gt;Node9</title>
<g id="a_edge10_Node000008_Node000009"><a xlink:title=" ">
<path fill="none" stroke="#63b8ff" d="M695.74,-15.25C707.25,-15.25 719.72,-15.25 731.68,-15.25"/>
<polygon fill="#63b8ff" stroke="#63b8ff" points="731.42,-18.75 741.42,-15.25 731.42,-11.75 731.42,-18.75"/>
</a>
</g>
</g>
<!-- Node9&#45;&gt;Node9 -->
<g id="edge11_Node000009_Node000009" class="edge">
<title>Node9&#45;&gt;Node9</title>
<g id="a_edge11_Node000009_Node000009"><a xlink:title=" ">
<path fill="none" stroke="#63b8ff" d="M765.59,-30.99C760.69,-40.06 768.7,-48.5 789.62,-48.5 801.07,-48.5 808.65,-45.97 812.37,-42.2"/>
<polygon fill="#63b8ff" stroke="#63b8ff" points="815.82,-42.82 813.49,-32.49 808.87,-42.02 815.82,-42.82"/>
</a>
</g>
</g>
<!-- Node10&#45;&gt;Node2 -->
<g id="edge13_Node000010_Node000002" class="edge">
<title>Node10&#45;&gt;Node2</title>
<g id="a_edge13_Node000010_Node000002"><a xlink:title=" ">
<path fill="none" stroke="#63b8ff" d="M690.19,-128.96C695.93,-131.54 701.68,-134.33 707,-137.25 728.45,-149.03 751.15,-165.22 767.15,-177.33"/>
<polygon fill="#63b8ff" stroke="#63b8ff" points="764.91,-180.03 774.97,-183.35 769.18,-174.48 764.91,-180.03"/>
</a>
</g>
</g>
<!-- Node11&#45;&gt;Node2 -->
<g id="edge15_Node000011_Node000002" class="edge">
<title>Node11&#45;&gt;Node2</title>
<g id="a_edge15_Node000011_Node000002"><a xlink:title=" ">
<path fill="none" stroke="#63b8ff" d="M554.02,-273.96C596.67,-271.46 657.18,-264.62 707,-246.25 729.32,-238.02 751.93,-222.98 767.67,-211.19"/>
<polygon fill="#63b8ff" stroke="#63b8ff" points="769.55,-214.16 775.32,-205.28 765.27,-208.62 769.55,-214.16"/>
</a>
</g>
</g>
<!-- Node13 -->
<g id="Node000013" class="node">
<title>Node13</title>
<g id="a_Node000013"><a xlink:href="classdetail_1_1binary__reader.html#a9aeb80d0dd19032e1b2128b3f093a794" target="_top" xlink:title="get next character from the input">
<polygon fill="white" stroke="#666666" points="408.75,-114.88 285.5,-114.88 285.5,-95.62 408.75,-95.62 408.75,-114.88"/>
<text xml:space="preserve" text-anchor="middle" x="347.12" y="-101.38" font-family="Helvetica,sans-Serif" font-size="10.00">detail::binary_reader::get</text>
</a>
</g>
</g>
<!-- Node12&#45;&gt;Node13 -->
<g id="edge17_Node000012_Node000013" class="edge">
<title>Node12&#45;&gt;Node13</title>
<g id="a_edge17_Node000012_Node000013"><a xlink:title=" ">
<path fill="none" stroke="#63b8ff" d="M248.97,-135.55C266.64,-130.04 286.3,-123.91 303.29,-118.61"/>
<polygon fill="#63b8ff" stroke="#63b8ff" points="304.07,-122.03 312.57,-115.71 301.98,-115.35 304.07,-122.03"/>
</a>
</g>
</g>
<!-- Node12&#45;&gt;Node14 -->
<g id="edge18_Node000012_Node000014" class="edge">
<title>Node12&#45;&gt;Node14</title>
<g id="a_edge18_Node000012_Node000014"><a xlink:title=" ">
<path fill="none" stroke="#63b8ff" d="M249.8,-151.25C260.61,-151.25 272.13,-151.25 283.31,-151.25"/>
<polygon fill="#63b8ff" stroke="#63b8ff" points="283.28,-154.75 293.28,-151.25 283.28,-147.75 283.28,-154.75"/>
</a>
</g>
</g>
<!-- Node14&#45;&gt;Node5 -->
<g id="edge19_Node000014_Node000005" class="edge">
<title>Node14&#45;&gt;Node5</title>
<g id="a_edge19_Node000014_Node000005"><a xlink:title=" ">
<path fill="none" stroke="#63b8ff" d="M399.37,-138.28C412.77,-134.89 427.31,-131.21 441.01,-127.74"/>
<polygon fill="#63b8ff" stroke="#63b8ff" points="441.47,-131.23 450.3,-125.39 439.75,-124.45 441.47,-131.23"/>
</a>
</g>
</g>
<!-- Node14&#45;&gt;Node11 -->
<g id="edge20_Node000014_Node000011" class="edge">
<title>Node14&#45;&gt;Node11</title>
<g id="a_edge20_Node000014_Node000011"><a xlink:title=" ">
<path fill="none" stroke="#63b8ff" d="M367.14,-166.95C393.31,-188.57 440.6,-227.63 470.66,-252.46"/>
<polygon fill="#63b8ff" stroke="#63b8ff" points="468.29,-255.04 478.22,-258.71 472.74,-249.64 468.29,-255.04"/>
</a>
</g>
</g>
<!-- Node14&#45;&gt;Node14 -->
<g id="edge21_Node000014_Node000014" class="edge">
<title>Node14&#45;&gt;Node14</title>
<g id="a_edge21_Node000014_Node000014"><a xlink:title=" ">
<path fill="none" stroke="#63b8ff" d="M320.63,-166.99C315.23,-176.06 324.06,-184.5 347.12,-184.5 359.74,-184.5 368.1,-181.97 372.2,-178.2"/>
<polygon fill="#63b8ff" stroke="#63b8ff" points="375.64,-178.85 373.43,-168.49 368.7,-177.97 375.64,-178.85"/>
</a>
</g>
</g>
<!-- Node15&#45;&gt;Node13 -->
<g id="edge23_Node000015_Node000013" class="edge">
<title>Node15&#45;&gt;Node13</title>
<g id="a_edge23_Node000015_Node000013"><a xlink:title=" ">
<path fill="none" stroke="#63b8ff" d="M249.8,-103.29C257.55,-103.45 265.66,-103.61 273.76,-103.78"/>
<polygon fill="#63b8ff" stroke="#63b8ff" points="273.56,-107.27 283.63,-103.98 273.7,-100.28 273.56,-107.27"/>
</a>
</g>
</g>
<!-- Node15&#45;&gt;Node14 -->
<g id="edge24_Node000015_Node000014" class="edge">
<title>Node15&#45;&gt;Node14</title>
<g id="a_edge24_Node000015_Node000014"><a xlink:title=" ">
<path fill="none" stroke="#63b8ff" d="M245.7,-117.89C259.2,-122.37 274.09,-127.32 288.17,-132"/>
<polygon fill="#63b8ff" stroke="#63b8ff" points="286.71,-135.2 297.3,-135.03 288.91,-128.56 286.71,-135.2"/>
</a>
</g>
</g>
</g>
</svg>

<g id="navigator" transform="translate(0 0)" fill="#404254">
  <rect fill="#f2f5e9" fill-opacity="0.5" stroke="#606060" stroke-width=".5" x="0" y="0" width="60" height="60"/>
  <use id="zoomplus" xlink:href="#zoomPlus" x="17" y="9" onmousedown="handleZoom(evt,'in')"/>
  <use id="zoomminus" xlink:href="#zoomMin" x="42" y="9" onmousedown="handleZoom(evt,'out')"/>
  <use id="reset" xlink:href="#resetDef" x="30" y="36" onmousedown="handleReset()"/>
   <use id="arrowup" xlink:href="#arrowUp" x="0" y="0" onmousedown="handlePan(0,-1)"/>
  <use id="arrowright" xlink:href="#arrowRight" x="0" y="0" onmousedown="handlePan(1,0)"/>
  <use id="arrowdown" xlink:href="#arrowDown" x="0" y="0" onmousedown="handlePan(0,1)"/>
  <use id="arrowleft" xlink:href="#arrowLeft" x="0" y="0" onmousedown="handlePan(-1,0)"/>
</g>
<svg viewBox="0 0 15 15" width="100%" height="30px" preserveAspectRatio="xMaxYMin meet">
 <g id="arrow_out" transform="scale(0.3 0.3)">
  <a xlink:href="classdetail_1_1binary__reader_a39289c89b50b1d53cd6e066f50ad2f01_cgraph_org.svg" target="_base">
   <rect id="button" ry="5" rx="5" y="6" x="6" height="38" width="38"
        fill="#f2f5e9" fill-opacity="0.5" stroke="#606060" stroke-width="1.0"/>
   <path id="arrow"
     d="M 11.500037,31.436501 C 11.940474,20.09759 22.043105,11.32322 32.158766,21.979434 L 37.068811,17.246167 C 37.068811,17.246167 37.088388,32 37.088388,32 L 22.160133,31.978069 C 22.160133,31.978069 26.997745,27.140456 26.997745,27.140456 C 18.528582,18.264221 13.291696,25.230495 11.500037,31.436501 z"
     style="fill:#404040;"/>
  </a>
 </g>
</svg>

<style type='text/css'>
<![CDATA[
[data-mouse-over-selected='false'] { opacity: 0.7; }
[data-mouse-over-selected='true']  { opacity: 1.0; }
]]>
</style>
<script type="application/ecmascript"><![CDATA[
document.addEventListener('DOMContentLoaded', (event) => {
  highlightEdges();
  highlightAdjacentNodes();
});
]]></script>
</svg>
