<?xml version="1.0" encoding="UTF-8" standalone="no"?>
<!DOCTYPE svg PUBLIC "-//W3C//DTD SVG 1.1//EN"
 "http://www.w3.org/Graphics/SVG/1.1/DTD/svg11.dtd">
<!-- Generated by graphviz version 13.0.1 (20250615.1724)
 -->
<!-- Title: detail::parser::sax_parse Pages: 1 -->
<svg width="813pt" height="451pt"
 viewBox="0.00 0.00 813.00 451.00" xmlns="http://www.w3.org/2000/svg" xmlns:xlink="http://www.w3.org/1999/xlink">
<g id="graph0" class="graph" transform="scale(1 1) rotate(0) translate(4 446.5)">
<title>detail::parser::sax_parse</title>
<!-- Node1 -->
<g id="Node000001" class="node">
<title>Node1</title>
<g id="a_Node000001"><a xlink:title=" ">
<polygon fill="#999999" stroke="#666666" points="94,-100.5 0,-100.5 0,-70 94,-70 94,-100.5"/>
<text xml:space="preserve" text-anchor="start" x="8" y="-87" font-family="Helvetica,sans-Serif" font-size="10.00">detail::parser::sax</text>
<text xml:space="preserve" text-anchor="middle" x="47" y="-75.75" font-family="Helvetica,sans-Serif" font-size="10.00">_parse</text>
</a>
</g>
</g>
<!-- Node1&#45;&gt;Node1 -->
<g id="edge17_Node000001_Node000001" class="edge">
<title>Node1&#45;&gt;Node1</title>
<g id="a_edge17_Node000001_Node000001"><a xlink:title=" ">
<path fill="none" stroke="#63b8ff" d="M23.96,-100.99C19.26,-110.06 26.94,-118.5 47,-118.5 57.97,-118.5 65.24,-115.97 68.8,-112.2"/>
<polygon fill="#63b8ff" stroke="#63b8ff" points="72.25,-112.81 69.87,-102.49 65.3,-112.05 72.25,-112.81"/>
</a>
</g>
</g>
<!-- Node2 -->
<g id="Node000002" class="node">
<title>Node2</title>
<g id="a_Node000002"><a xlink:href="classdetail_1_1parse__error.html#a07046ea9f33d28f120af188ed674d6df" target="_top" xlink:title="create a parse error exception">
<polygon fill="white" stroke="#666666" points="367.12,-203.5 273.12,-203.5 273.12,-173 367.12,-173 367.12,-203.5"/>
<text xml:space="preserve" text-anchor="start" x="281.12" y="-190" font-family="Helvetica,sans-Serif" font-size="10.00">detail::parse_error</text>
<text xml:space="preserve" text-anchor="middle" x="320.12" y="-178.75" font-family="Helvetica,sans-Serif" font-size="10.00">::create</text>
</a>
</g>
</g>
<!-- Node1&#45;&gt;Node2 -->
<g id="edge1_Node000001_Node000002" class="edge">
<title>Node1&#45;&gt;Node2</title>
<g id="a_edge1_Node000001_Node000002"><a xlink:title=" ">
<path fill="none" stroke="#63b8ff" d="M63.46,-100.94C78.94,-115.7 104.1,-137.28 130,-149.25 171.82,-168.58 223.25,-178.4 261.91,-183.34"/>
<polygon fill="#63b8ff" stroke="#63b8ff" points="261.12,-186.77 271.46,-184.49 261.95,-179.82 261.12,-186.77"/>
</a>
</g>
</g>
<!-- Node11 -->
<g id="Node000011" class="node">
<title>Node11</title>
<g id="a_Node000011"><a xlink:href="classdetail_1_1parser.html#a13621f12e55437efd6c1af970f071a92" target="_top" xlink:title=" ">
<polygon fill="white" stroke="#666666" points="380.25,-79.5 260,-79.5 260,-49 380.25,-49 380.25,-79.5"/>
<text xml:space="preserve" text-anchor="start" x="268" y="-66" font-family="Helvetica,sans-Serif" font-size="10.00">detail::parser::exception</text>
<text xml:space="preserve" text-anchor="middle" x="320.12" y="-54.75" font-family="Helvetica,sans-Serif" font-size="10.00">_message</text>
</a>
</g>
</g>
<!-- Node1&#45;&gt;Node11 -->
<g id="edge13_Node000001_Node000011" class="edge">
<title>Node1&#45;&gt;Node11</title>
<g id="a_edge13_Node000001_Node000011"><a xlink:title=" ">
<path fill="none" stroke="#63b8ff" d="M94.3,-81.66C136.59,-78.39 199.73,-73.5 248.34,-69.73"/>
<polygon fill="#63b8ff" stroke="#63b8ff" points="248.53,-73.23 258.23,-68.97 247.99,-66.25 248.53,-73.23"/>
</a>
</g>
</g>
<!-- Node13 -->
<g id="Node000013" class="node">
<title>Node13</title>
<g id="a_Node000013"><a xlink:href="classdetail_1_1parser.html#aea40f4e5d5dd7f2860282804e1df5a6d" target="_top" xlink:title="get next token from lexer">
<polygon fill="white" stroke="#666666" points="366,-30.5 274.25,-30.5 274.25,0 366,0 366,-30.5"/>
<text xml:space="preserve" text-anchor="start" x="282.25" y="-17" font-family="Helvetica,sans-Serif" font-size="10.00">detail::parser::get</text>
<text xml:space="preserve" text-anchor="middle" x="320.12" y="-5.75" font-family="Helvetica,sans-Serif" font-size="10.00">_token</text>
</a>
</g>
</g>
<!-- Node1&#45;&gt;Node13 -->
<g id="edge16_Node000001_Node000013" class="edge">
<title>Node1&#45;&gt;Node13</title>
<g id="a_edge16_Node000001_Node000013"><a xlink:title=" ">
<path fill="none" stroke="#63b8ff" d="M94.3,-73.3C140.98,-61.24 213.09,-42.63 263,-29.74"/>
<polygon fill="#63b8ff" stroke="#63b8ff" points="263.65,-33.19 272.45,-27.3 261.9,-26.41 263.65,-33.19"/>
</a>
</g>
</g>
<!-- Node14 -->
<g id="Node000014" class="node">
<title>Node14</title>
<g id="a_Node000014"><a xlink:href="classdetail_1_1parser.html#a362fc204b9a1027d6288deabc3b3360a" target="_top" xlink:title=" ">
<polygon fill="white" stroke="#666666" points="224,-122.5 130,-122.5 130,-92 224,-92 224,-122.5"/>
<text xml:space="preserve" text-anchor="start" x="138" y="-109" font-family="Helvetica,sans-Serif" font-size="10.00">detail::parser::sax</text>
<text xml:space="preserve" text-anchor="middle" x="177" y="-97.75" font-family="Helvetica,sans-Serif" font-size="10.00">_parse_internal</text>
</a>
</g>
</g>
<!-- Node1&#45;&gt;Node14 -->
<g id="edge18_Node000001_Node000014" class="edge">
<title>Node1&#45;&gt;Node14</title>
<g id="a_edge18_Node000001_Node000014"><a xlink:title=" ">
<path fill="none" stroke="#63b8ff" d="M94.21,-93.19C102.19,-94.56 110.56,-96 118.79,-97.42"/>
<polygon fill="#63b8ff" stroke="#63b8ff" points="117.92,-100.82 128.37,-99.06 119.1,-93.92 117.92,-100.82"/>
</a>
</g>
</g>
<!-- Node3 -->
<g id="Node000003" class="node">
<title>Node3</title>
<g id="a_Node000003"><a xlink:href="namespacedetail.html#a266fb3d4bf633ad6c506434cc91164da" target="_top" xlink:title=" ">
<polygon fill="white" stroke="#666666" points="653.38,-176.88 578.88,-176.88 578.88,-157.62 653.38,-157.62 653.38,-176.88"/>
<text xml:space="preserve" text-anchor="middle" x="616.12" y="-163.38" font-family="Helvetica,sans-Serif" font-size="10.00">detail::concat</text>
</a>
</g>
</g>
<!-- Node2&#45;&gt;Node3 -->
<g id="edge2_Node000002_Node000003" class="edge">
<title>Node2&#45;&gt;Node3</title>
<g id="a_edge2_Node000002_Node000003"><a xlink:title=" ">
<path fill="none" stroke="#63b8ff" d="M367.62,-174.08C382.95,-170.06 400.19,-166.24 416.25,-164.25 467.96,-157.83 481.4,-163.29 533.5,-164.25 544.44,-164.45 556.21,-164.8 567.3,-165.2"/>
<polygon fill="#63b8ff" stroke="#63b8ff" points="566.93,-168.69 577.05,-165.56 567.19,-161.69 566.93,-168.69"/>
</a>
</g>
</g>
<!-- Node6 -->
<g id="Node000006" class="node">
<title>Node6</title>
<g id="a_Node000006"><a xlink:href="classdetail_1_1exception.html#a6b4a786b5c1c25dd3edaceb1bf2d5120" target="_top" xlink:title=" ">
<polygon fill="white" stroke="#666666" points="521.5,-338.5 428.25,-338.5 428.25,-308 521.5,-308 521.5,-338.5"/>
<text xml:space="preserve" text-anchor="start" x="436.25" y="-325" font-family="Helvetica,sans-Serif" font-size="10.00">detail::exception::</text>
<text xml:space="preserve" text-anchor="middle" x="474.88" y="-313.75" font-family="Helvetica,sans-Serif" font-size="10.00">diagnostics</text>
</a>
</g>
</g>
<!-- Node2&#45;&gt;Node6 -->
<g id="edge5_Node000002_Node000006" class="edge">
<title>Node2&#45;&gt;Node6</title>
<g id="a_edge5_Node000002_Node000006"><a xlink:title=" ">
<path fill="none" stroke="#63b8ff" d="M331.09,-203.69C346.76,-226.93 379.22,-271.05 416.25,-298.25 418.03,-299.56 419.89,-300.81 421.8,-302.02"/>
<polygon fill="#63b8ff" stroke="#63b8ff" points="419.98,-305.01 430.41,-306.88 423.42,-298.92 419.98,-305.01"/>
</a>
</g>
</g>
<!-- Node7 -->
<g id="Node000007" class="node">
<title>Node7</title>
<g id="a_Node000007"><a xlink:href="classdetail_1_1exception.html#a8f1eb56b9964c8dd84d89d0da98d883b" target="_top" xlink:title=" ">
<polygon fill="white" stroke="#666666" points="533.5,-240.88 416.25,-240.88 416.25,-221.62 533.5,-221.62 533.5,-240.88"/>
<text xml:space="preserve" text-anchor="middle" x="474.88" y="-227.38" font-family="Helvetica,sans-Serif" font-size="10.00">detail::exception::name</text>
</a>
</g>
</g>
<!-- Node2&#45;&gt;Node7 -->
<g id="edge6_Node000002_Node000007" class="edge">
<title>Node2&#45;&gt;Node7</title>
<g id="a_edge6_Node000002_Node000007"><a xlink:title=" ">
<path fill="none" stroke="#63b8ff" d="M367.37,-201.27C386.22,-206.57 407.98,-212.7 426.91,-218.03"/>
<polygon fill="#63b8ff" stroke="#63b8ff" points="425.94,-221.39 436.52,-220.73 427.84,-214.65 425.94,-221.39"/>
</a>
</g>
</g>
<!-- Node8 -->
<g id="Node000008" class="node">
<title>Node8</title>
<g id="a_Node000008"><a xlink:href="classdetail_1_1parse__error.html#a7703a00cc97c4590e56254b62b479ff5" target="_top" xlink:title=" ">
<polygon fill="white" stroke="#666666" points="521.88,-289.5 427.88,-289.5 427.88,-259 521.88,-259 521.88,-289.5"/>
<text xml:space="preserve" text-anchor="start" x="435.88" y="-276" font-family="Helvetica,sans-Serif" font-size="10.00">detail::parse_error</text>
<text xml:space="preserve" text-anchor="middle" x="474.88" y="-264.75" font-family="Helvetica,sans-Serif" font-size="10.00">::parse_error</text>
</a>
</g>
</g>
<!-- Node2&#45;&gt;Node8 -->
<g id="edge8_Node000002_Node000008" class="edge">
<title>Node2&#45;&gt;Node8</title>
<g id="a_edge8_Node000002_Node000008"><a xlink:title=" ">
<path fill="none" stroke="#63b8ff" d="M342.72,-203.97C361.57,-217.27 389.93,-236.34 416.25,-250.25 418.47,-251.42 420.76,-252.58 423.09,-253.71"/>
<polygon fill="#63b8ff" stroke="#63b8ff" points="421.53,-256.85 432.08,-257.88 424.48,-250.5 421.53,-256.85"/>
</a>
</g>
</g>
<!-- Node10 -->
<g id="Node000010" class="node">
<title>Node10</title>
<g id="a_Node000010"><a xlink:href="classdetail_1_1parse__error.html#a19cdccb06cba79d7b4efc51f501ced8b" target="_top" xlink:title=" ">
<polygon fill="white" stroke="#666666" points="521.88,-203.5 427.88,-203.5 427.88,-173 521.88,-173 521.88,-203.5"/>
<text xml:space="preserve" text-anchor="start" x="435.88" y="-190" font-family="Helvetica,sans-Serif" font-size="10.00">detail::parse_error</text>
<text xml:space="preserve" text-anchor="middle" x="474.88" y="-178.75" font-family="Helvetica,sans-Serif" font-size="10.00">::position_string</text>
</a>
</g>
</g>
<!-- Node2&#45;&gt;Node10 -->
<g id="edge11_Node000002_Node000010" class="edge">
<title>Node2&#45;&gt;Node10</title>
<g id="a_edge11_Node000002_Node000010"><a xlink:title=" ">
<path fill="none" stroke="#63b8ff" d="M367.37,-188.25C382.7,-188.25 399.97,-188.25 416.06,-188.25"/>
<polygon fill="#63b8ff" stroke="#63b8ff" points="416.01,-191.75 426.01,-188.25 416.01,-184.75 416.01,-191.75"/>
</a>
</g>
</g>
<!-- Node4 -->
<g id="Node000004" class="node">
<title>Node4</title>
<g id="a_Node000004"><a xlink:href="namespacedetail.html#a89f967b745cf8df11ba9d59f93d97753" target="_top" xlink:title=" ">
<polygon fill="white" stroke="#666666" points="799.5,-195.88 704,-195.88 704,-176.62 799.5,-176.62 799.5,-195.88"/>
<text xml:space="preserve" text-anchor="middle" x="751.75" y="-182.38" font-family="Helvetica,sans-Serif" font-size="10.00">detail::concat_into</text>
</a>
</g>
</g>
<!-- Node3&#45;&gt;Node4 -->
<g id="edge3_Node000003_Node000004" class="edge">
<title>Node3&#45;&gt;Node4</title>
<g id="a_edge3_Node000003_Node000004"><a xlink:title=" ">
<path fill="none" stroke="#63b8ff" d="M653.64,-172.44C665.59,-174.14 679.19,-176.07 692.34,-177.94"/>
<polygon fill="#63b8ff" stroke="#63b8ff" points="691.84,-181.41 702.23,-179.35 692.83,-174.48 691.84,-181.41"/>
</a>
</g>
</g>
<!-- Node5 -->
<g id="Node000005" class="node">
<title>Node5</title>
<g id="a_Node000005"><a xlink:href="namespacedetail.html#ac185140ed8c8fcc07a302a890b714b0d" target="_top" xlink:title=" ">
<polygon fill="white" stroke="#666666" points="804.75,-158.88 698.75,-158.88 698.75,-139.62 804.75,-139.62 804.75,-158.88"/>
<text xml:space="preserve" text-anchor="middle" x="751.75" y="-145.38" font-family="Helvetica,sans-Serif" font-size="10.00">detail::concat_length</text>
</a>
</g>
</g>
<!-- Node3&#45;&gt;Node5 -->
<g id="edge4_Node000003_Node000005" class="edge">
<title>Node3&#45;&gt;Node5</title>
<g id="a_edge4_Node000003_Node000005"><a xlink:title=" ">
<path fill="none" stroke="#63b8ff" d="M653.64,-162.33C664.01,-160.93 675.62,-159.37 687.11,-157.82"/>
<polygon fill="#63b8ff" stroke="#63b8ff" points="687.56,-161.29 697,-156.49 686.62,-154.36 687.56,-161.29"/>
</a>
</g>
</g>
<!-- Node7&#45;&gt;Node3 -->
<g id="edge7_Node000007_Node000003" class="edge">
<title>Node7&#45;&gt;Node3</title>
<g id="a_edge7_Node000007_Node000003"><a xlink:title=" ">
<path fill="none" stroke="#63b8ff" d="M510.09,-221.13C517.89,-218.5 526.06,-215.49 533.5,-212.25 552.85,-203.81 573.67,-192.29 589.44,-183.02"/>
<polygon fill="#63b8ff" stroke="#63b8ff" points="590.92,-186.21 597.71,-178.08 587.33,-180.2 590.92,-186.21"/>
</a>
</g>
</g>
<!-- Node9 -->
<g id="Node000009" class="node">
<title>Node9</title>
<g id="a_Node000009"><a xlink:href="classdetail_1_1exception.html#a528d6bc77e88490bbb84cde2222b7ff0" target="_top" xlink:title=" ">
<polygon fill="white" stroke="#666666" points="662.75,-356.5 569.5,-356.5 569.5,-326 662.75,-326 662.75,-356.5"/>
<text xml:space="preserve" text-anchor="start" x="577.5" y="-343" font-family="Helvetica,sans-Serif" font-size="10.00">detail::exception::</text>
<text xml:space="preserve" text-anchor="middle" x="616.12" y="-331.75" font-family="Helvetica,sans-Serif" font-size="10.00">exception</text>
</a>
</g>
</g>
<!-- Node8&#45;&gt;Node9 -->
<g id="edge9_Node000008_Node000009" class="edge">
<title>Node8&#45;&gt;Node9</title>
<g id="a_edge9_Node000008_Node000009"><a xlink:title=" ">
<path fill="none" stroke="#63b8ff" d="M512.93,-289.9C519.8,-292.92 526.9,-296.12 533.5,-299.25 547.5,-305.88 562.64,-313.53 576.04,-320.47"/>
<polygon fill="#63b8ff" stroke="#63b8ff" points="574.06,-323.39 584.55,-324.91 577.3,-317.19 574.06,-323.39"/>
</a>
</g>
</g>
<!-- Node9&#45;&gt;Node9 -->
<g id="edge10_Node000009_Node000009" class="edge">
<title>Node9&#45;&gt;Node9</title>
<g id="a_edge10_Node000009_Node000009"><a xlink:title=" ">
<path fill="none" stroke="#63b8ff" d="M592.09,-356.99C587.19,-366.06 595.2,-374.5 616.12,-374.5 627.57,-374.5 635.15,-371.97 638.87,-368.2"/>
<polygon fill="#63b8ff" stroke="#63b8ff" points="642.32,-368.82 639.99,-358.49 635.37,-368.02 642.32,-368.82"/>
</a>
</g>
</g>
<!-- Node10&#45;&gt;Node3 -->
<g id="edge12_Node000010_Node000003" class="edge">
<title>Node10&#45;&gt;Node3</title>
<g id="a_edge12_Node000010_Node000003"><a xlink:title=" ">
<path fill="none" stroke="#63b8ff" d="M522.24,-181.26C536.73,-179.07 552.73,-176.66 567.31,-174.46"/>
<polygon fill="#63b8ff" stroke="#63b8ff" points="567.78,-177.93 577.14,-172.98 566.73,-171.01 567.78,-177.93"/>
</a>
</g>
</g>
<!-- Node11&#45;&gt;Node3 -->
<g id="edge14_Node000011_Node000003" class="edge">
<title>Node11&#45;&gt;Node3</title>
<g id="a_edge14_Node000011_Node000003"><a xlink:title=" ">
<path fill="none" stroke="#63b8ff" d="M380.54,-63.07C424.65,-64.36 485.27,-70.77 533.5,-93.25 560.86,-106 585.5,-131.14 600.38,-148.56"/>
<polygon fill="#63b8ff" stroke="#63b8ff" points="597.57,-150.66 606.64,-156.15 602.97,-146.2 597.57,-150.66"/>
</a>
</g>
</g>
<!-- Node12 -->
<g id="Node000012" class="node">
<title>Node12</title>
<g id="a_Node000012"><a xlink:href="classdetail_1_1lexer__base.html#aadef66e89ad828e5f69479c85887fa6d" target="_top" xlink:title="return name of values of type token_type (only used for errors)">
<polygon fill="white" stroke="#666666" points="524.5,-41.5 425.25,-41.5 425.25,-11 524.5,-11 524.5,-41.5"/>
<text xml:space="preserve" text-anchor="start" x="433.25" y="-28" font-family="Helvetica,sans-Serif" font-size="10.00">detail::lexer_base</text>
<text xml:space="preserve" text-anchor="middle" x="474.88" y="-16.75" font-family="Helvetica,sans-Serif" font-size="10.00">::token_type_name</text>
</a>
</g>
</g>
<!-- Node11&#45;&gt;Node12 -->
<g id="edge15_Node000011_Node000012" class="edge">
<title>Node11&#45;&gt;Node12</title>
<g id="a_edge15_Node000011_Node000012"><a xlink:title=" ">
<path fill="none" stroke="#63b8ff" d="M380.62,-49.45C391.68,-46.7 403.23,-43.82 414.29,-41.07"/>
<polygon fill="#63b8ff" stroke="#63b8ff" points="414.82,-44.55 423.68,-38.74 413.13,-37.75 414.82,-44.55"/>
</a>
</g>
</g>
<!-- Node14&#45;&gt;Node2 -->
<g id="edge27_Node000014_Node000002" class="edge">
<title>Node14&#45;&gt;Node2</title>
<g id="a_edge27_Node000014_Node000002"><a xlink:title=" ">
<path fill="none" stroke="#63b8ff" d="M205.21,-122.87C227.08,-135.42 258.01,-153.17 282.13,-167.01"/>
<polygon fill="#63b8ff" stroke="#63b8ff" points="280.27,-169.98 290.69,-171.93 283.75,-163.91 280.27,-169.98"/>
</a>
</g>
</g>
<!-- Node14&#45;&gt;Node3 -->
<g id="edge19_Node000014_Node000003" class="edge">
<title>Node14&#45;&gt;Node3</title>
<g id="a_edge19_Node000014_Node000003"><a xlink:title=" ">
<path fill="none" stroke="#63b8ff" d="M224.37,-113.61C307.89,-125.08 482.78,-149.08 567.33,-160.69"/>
<polygon fill="#63b8ff" stroke="#63b8ff" points="566.76,-164.14 577.14,-162.04 567.71,-157.21 566.76,-164.14"/>
</a>
</g>
</g>
<!-- Node14&#45;&gt;Node11 -->
<g id="edge28_Node000014_Node000011" class="edge">
<title>Node14&#45;&gt;Node11</title>
<g id="a_edge28_Node000014_Node000011"><a xlink:title=" ">
<path fill="none" stroke="#63b8ff" d="M224.21,-93.17C234.58,-90.01 245.75,-86.61 256.66,-83.28"/>
<polygon fill="#63b8ff" stroke="#63b8ff" points="257.45,-86.7 265.99,-80.44 255.41,-80.01 257.45,-86.7"/>
</a>
</g>
</g>
<!-- Node14&#45;&gt;Node13 -->
<g id="edge29_Node000014_Node000013" class="edge">
<title>Node14&#45;&gt;Node13</title>
<g id="a_edge29_Node000014_Node000013"><a xlink:title=" ">
<path fill="none" stroke="#63b8ff" d="M194.22,-91.63C210.04,-76.98 235.28,-55.15 260,-40.25 262.42,-38.79 264.94,-37.37 267.52,-36.01"/>
<polygon fill="#63b8ff" stroke="#63b8ff" points="268.89,-39.23 276.31,-31.66 265.79,-32.96 268.89,-39.23"/>
</a>
</g>
</g>
<!-- Node14&#45;&gt;Node14 -->
<g id="edge30_Node000014_Node000014" class="edge">
<title>Node14&#45;&gt;Node14</title>
<g id="a_edge30_Node000014_Node000014"><a xlink:title=" ">
<path fill="none" stroke="#63b8ff" d="M153.96,-122.99C149.26,-132.06 156.94,-140.5 177,-140.5 187.97,-140.5 195.24,-137.97 198.8,-134.2"/>
<polygon fill="#63b8ff" stroke="#63b8ff" points="202.25,-134.81 199.87,-124.49 195.3,-134.05 202.25,-134.81"/>
</a>
</g>
</g>
<!-- Node15 -->
<g id="Node000015" class="node">
<title>Node15</title>
<g id="a_Node000015"><a xlink:href="classdetail_1_1out__of__range.html#a79ea0d3ec02a853629dc827e045ecff5" target="_top" xlink:title=" ">
<polygon fill="white" stroke="#666666" points="370.88,-338.5 269.38,-338.5 269.38,-308 370.88,-308 370.88,-338.5"/>
<text xml:space="preserve" text-anchor="start" x="277.38" y="-325" font-family="Helvetica,sans-Serif" font-size="10.00">detail::out_of_range</text>
<text xml:space="preserve" text-anchor="middle" x="320.12" y="-313.75" font-family="Helvetica,sans-Serif" font-size="10.00">::create</text>
</a>
</g>
</g>
<!-- Node14&#45;&gt;Node15 -->
<g id="edge20_Node000014_Node000015" class="edge">
<title>Node14&#45;&gt;Node15</title>
<g id="a_edge20_Node000014_Node000015"><a xlink:title=" ">
<path fill="none" stroke="#63b8ff" d="M188.15,-122.78C212.25,-159.67 273.09,-252.8 302.59,-297.94"/>
<polygon fill="#63b8ff" stroke="#63b8ff" points="299.65,-299.84 308.05,-306.3 305.51,-296.01 299.65,-299.84"/>
</a>
</g>
</g>
<!-- Node15&#45;&gt;Node3 -->
<g id="edge21_Node000015_Node000003" class="edge">
<title>Node15&#45;&gt;Node3</title>
<g id="a_edge21_Node000015_Node000003"><a xlink:title=" ">
<path fill="none" stroke="#63b8ff" d="M353.55,-338.86C397.9,-357.74 478.3,-382.83 533.5,-347.25 589.07,-311.43 607.23,-227.56 612.81,-188.26"/>
<polygon fill="#63b8ff" stroke="#63b8ff" points="616.27,-188.84 614.05,-178.48 609.32,-187.97 616.27,-188.84"/>
</a>
</g>
</g>
<!-- Node15&#45;&gt;Node6 -->
<g id="edge22_Node000015_Node000006" class="edge">
<title>Node15&#45;&gt;Node6</title>
<g id="a_edge22_Node000015_Node000006"><a xlink:title=" ">
<path fill="none" stroke="#63b8ff" d="M371.14,-323.25C385.7,-323.25 401.72,-323.25 416.68,-323.25"/>
<polygon fill="#63b8ff" stroke="#63b8ff" points="416.37,-326.75 426.37,-323.25 416.37,-319.75 416.37,-326.75"/>
</a>
</g>
</g>
<!-- Node15&#45;&gt;Node7 -->
<g id="edge23_Node000015_Node000007" class="edge">
<title>Node15&#45;&gt;Node7</title>
<g id="a_edge23_Node000015_Node000007"><a xlink:title=" ">
<path fill="none" stroke="#63b8ff" d="M337.79,-307.63C355.89,-291.37 386.26,-266.12 416.25,-250.25 419.51,-248.53 422.95,-246.92 426.47,-245.43"/>
<polygon fill="#63b8ff" stroke="#63b8ff" points="427.66,-248.72 435.73,-241.85 425.14,-242.19 427.66,-248.72"/>
</a>
</g>
</g>
<!-- Node16 -->
<g id="Node000016" class="node">
<title>Node16</title>
<g id="a_Node000016"><a xlink:href="classdetail_1_1out__of__range.html#a5be01a3b83b50a3775c6978946be4a18" target="_top" xlink:title=" ">
<polygon fill="white" stroke="#666666" points="525.62,-424.5 424.12,-424.5 424.12,-394 525.62,-394 525.62,-424.5"/>
<text xml:space="preserve" text-anchor="start" x="432.12" y="-411" font-family="Helvetica,sans-Serif" font-size="10.00">detail::out_of_range</text>
<text xml:space="preserve" text-anchor="middle" x="474.88" y="-399.75" font-family="Helvetica,sans-Serif" font-size="10.00">::out_of_range</text>
</a>
</g>
</g>
<!-- Node15&#45;&gt;Node16 -->
<g id="edge24_Node000015_Node000016" class="edge">
<title>Node15&#45;&gt;Node16</title>
<g id="a_edge24_Node000015_Node000016"><a xlink:title=" ">
<path fill="none" stroke="#63b8ff" d="M345.87,-338.76C364.9,-350.52 391.96,-366.88 416.25,-380.25 421.21,-382.98 426.46,-385.76 431.7,-388.47"/>
<polygon fill="#63b8ff" stroke="#63b8ff" points="429.81,-391.44 440.3,-392.87 432.99,-385.2 429.81,-391.44"/>
</a>
</g>
</g>
<!-- Node16&#45;&gt;Node9 -->
<g id="edge25_Node000016_Node000009" class="edge">
<title>Node16&#45;&gt;Node9</title>
<g id="a_edge25_Node000016_Node000009"><a xlink:title=" ">
<path fill="none" stroke="#63b8ff" d="M507.82,-393.65C527.19,-384.19 552.13,-372.01 573.09,-361.78"/>
<polygon fill="#63b8ff" stroke="#63b8ff" points="574.52,-364.98 581.97,-357.44 571.45,-358.69 574.52,-364.98"/>
</a>
</g>
</g>
<!-- Node16&#45;&gt;Node16 -->
<g id="edge26_Node000016_Node000016" class="edge">
<title>Node16&#45;&gt;Node16</title>
<g id="a_edge26_Node000016_Node000016"><a xlink:title=" ">
<path fill="none" stroke="#63b8ff" d="M449.85,-424.99C444.74,-434.06 453.08,-442.5 474.88,-442.5 486.79,-442.5 494.69,-439.97 498.56,-436.2"/>
<polygon fill="#63b8ff" stroke="#63b8ff" points="502.01,-436.83 499.72,-426.49 495.06,-436 502.01,-436.83"/>
</a>
</g>
</g>
</g>
</svg>
