<?xml version="1.0" encoding="UTF-8" standalone="no"?>
<!DOCTYPE svg PUBLIC "-//W3C//DTD SVG 1.1//EN"
 "http://www.w3.org/Graphics/SVG/1.1/DTD/svg11.dtd">
<!-- Generated by graphviz version 13.0.1 (20250615.1724)
 -->
<!-- Title: tSimplePoly_initToPool Pages: 1 -->
<!--zoomable 139 -->

<svg id="main" version="1.1" xmlns="http://www.w3.org/2000/svg" xmlns:xlink="http://www.w3.org/1999/xlink" xml:space="preserve" onload="init(evt)">

<style type="text/css"><![CDATA[
.node, .edge {opacity: 0.7;}
.node.selected, .edge.selected {opacity: 1;}
.edge:hover path { stroke: red; }
.edge:hover polygon { stroke: red; fill: red; }
]]></style>

<defs>
  <circle id="rim" cx="0" cy="0" r="7"/>
  <circle id="rim2" cx="0" cy="0" r="3.5"/>
  <g id="zoomPlus">
    <use xlink:href="#rim" fill="#404040"><set attributeName="fill" to="#808080" begin="zoomplus.mouseover" end="zoomplus.mouseout"/></use>
    <path d="M-4,0h8M0,-4v8" fill="none" stroke="white" stroke-width="1.5" pointer-events="none"/>
  </g>
  <g id="zoomMin">
    <use xlink:href="#rim" fill="#404040"><set attributeName="fill" to="#808080" begin="zoomminus.mouseover" end="zoomminus.mouseout"/></use>
    <path d="M-4,0h8" fill="none" stroke="white" stroke-width="1.5" pointer-events="none"/>
  </g>
  <g id="arrowUp" transform="translate(30 24)">
    <use xlink:href="#rim"/>
    <path pointer-events="none" fill="none" stroke="white" stroke-width="1.5" d="M0,-3.0v7 M-2.5,-0.5L0,-3.0L2.5,-0.5"/>
  </g>
  <g id="arrowRight" transform="rotate(90) translate(36 -43)">
    <use xlink:href="#rim"/>
    <path pointer-events="none" fill="none" stroke="white" stroke-width="1.5" d="M0,-3.0v7 M-2.5,-0.5L0,-3.0L2.5,-0.5"/>
  </g>
  <g id="arrowDown" transform="rotate(180) translate(-30 -48)">
    <use xlink:href="#rim"/>
    <path pointer-events="none" fill="none" stroke="white" stroke-width="1.5" d="M0,-3.0v7 M-2.5,-0.5L0,-3.0L2.5,-0.5"/>
  </g>
  <g id="arrowLeft" transform="rotate(270) translate(-36 17)">
    <use xlink:href="#rim"/>
    <path pointer-events="none" fill="none" stroke="white" stroke-width="1.5" d="M0,-3.0v7 M-2.5,-0.5L0,-3.0L2.5,-0.5"/>
  </g>
  <g id="resetDef">
    <use xlink:href="#rim2" fill="#404040"><set attributeName="fill" to="#808080" begin="reset.mouseover" end="reset.mouseout"/></use>
  </g>
</defs>
<script type="application/ecmascript">
var viewWidth = 535;
var viewHeight = 139;
var sectionId = 'dynsection-6';
</script>
<script type="application/ecmascript" xlink:href="svg.min.js"/>
<svg id="graph" class="graph">
<g id="viewport">
<title>tSimplePoly_initToPool</title>
<!-- Node1 -->
<g id="Node000001" class="node">
<title>Node1</title>
<g id="a_Node000001"><a xlink:title="Initialize a tSimplePoly to a specified mempool.">
<polygon fill="#999999" stroke="#666666" points="116.5,-93.25 0,-93.25 0,-74 116.5,-74 116.5,-93.25"/>
<text xml:space="preserve" text-anchor="middle" x="58.25" y="-79.75" font-family="Helvetica,sans-Serif" font-size="10.00">tSimplePoly_initToPool</text>
</a>
</g>
</g>
<!-- Node2 -->
<g id="Node000002" class="node">
<title>Node2</title>
<g id="a_Node000002"><a xlink:href="leaf-mempool_8c.html#a98a115a6f85f30795e172fd18db7fba4" target="_top" xlink:title=" ">
<polygon fill="white" stroke="#666666" points="351.38,-93.25 283.62,-93.25 283.62,-74 351.38,-74 351.38,-93.25"/>
<text xml:space="preserve" text-anchor="middle" x="317.5" y="-79.75" font-family="Helvetica,sans-Serif" font-size="10.00">mpool_alloc</text>
</a>
</g>
</g>
<!-- Node1&#45;&gt;Node2 -->
<g id="edge1_Node000001_Node000002" class="edge">
<title>Node1&#45;&gt;Node2</title>
<g id="a_edge1_Node000001_Node000002"><a xlink:title=" ">
<path fill="none" stroke="#63b8ff" d="M116.98,-83.62C163.83,-83.62 228.93,-83.62 271.86,-83.62"/>
<polygon fill="#63b8ff" stroke="#63b8ff" points="271.83,-87.13 281.83,-83.63 271.83,-80.13 271.83,-87.13"/>
</a>
</g>
</g>
<!-- Node7 -->
<g id="Node000007" class="node">
<title>Node7</title>
<g id="a_Node000007"><a xlink:href="leaf-mempool_8c.html#aa39debf1310a40b850cf115751abd65e" target="_top" xlink:title=" ">
<polygon fill="white" stroke="#666666" points="354,-56.25 281,-56.25 281,-37 354,-37 354,-56.25"/>
<text xml:space="preserve" text-anchor="middle" x="317.5" y="-42.75" font-family="Helvetica,sans-Serif" font-size="10.00">mpool_calloc</text>
</a>
</g>
</g>
<!-- Node1&#45;&gt;Node7 -->
<g id="edge6_Node000001_Node000007" class="edge">
<title>Node1&#45;&gt;Node7</title>
<g id="a_edge6_Node000001_Node000007"><a xlink:title=" ">
<path fill="none" stroke="#63b8ff" d="M116.98,-75.32C162.98,-68.71 226.58,-59.56 269.5,-53.38"/>
<polygon fill="#63b8ff" stroke="#63b8ff" points="269.86,-56.87 279.26,-51.98 268.86,-49.94 269.86,-56.87"/>
</a>
</g>
</g>
<!-- Node8 -->
<g id="Node000008" class="node">
<title>Node8</title>
<g id="a_Node000008"><a xlink:href="group__tstack.html#gac6a330c5c8f6fc6138b22c157e527c81" target="_top" xlink:title="Initialize a tStack to a specified mempool.">
<polygon fill="white" stroke="#666666" points="245,-131.25 152.5,-131.25 152.5,-112 245,-112 245,-131.25"/>
<text xml:space="preserve" text-anchor="middle" x="198.75" y="-117.75" font-family="Helvetica,sans-Serif" font-size="10.00">tStack_initToPool</text>
</a>
</g>
</g>
<!-- Node1&#45;&gt;Node8 -->
<g id="edge11_Node000001_Node000008" class="edge">
<title>Node1&#45;&gt;Node8</title>
<g id="a_edge11_Node000001_Node000008"><a xlink:title=" ">
<path fill="none" stroke="#63b8ff" d="M96,-93.71C112.65,-98.28 132.53,-103.73 150.29,-108.6"/>
<polygon fill="#63b8ff" stroke="#63b8ff" points="149.28,-111.96 159.85,-111.23 151.13,-105.2 149.28,-111.96"/>
</a>
</g>
</g>
<!-- Node3 -->
<g id="Node000003" class="node">
<title>Node3</title>
<g id="a_Node000003"><a xlink:href="leaf-mempool_8c.html#a03d72131ceaf28939aa5fd5ebd87807c" target="_top" xlink:title=" ">
<polygon fill="white" stroke="#666666" points="493,-56.25 423.75,-56.25 423.75,-37 493,-37 493,-56.25"/>
<text xml:space="preserve" text-anchor="middle" x="458.38" y="-42.75" font-family="Helvetica,sans-Serif" font-size="10.00">create_node</text>
</a>
</g>
</g>
<!-- Node2&#45;&gt;Node3 -->
<g id="edge2_Node000002_Node000003" class="edge">
<title>Node2&#45;&gt;Node3</title>
<g id="a_edge2_Node000002_Node000003"><a xlink:title=" ">
<path fill="none" stroke="#63b8ff" d="M351.76,-74.76C369.96,-69.91 392.75,-63.84 412.5,-58.58"/>
<polygon fill="#63b8ff" stroke="#63b8ff" points="413.19,-62.02 421.96,-56.06 411.39,-55.25 413.19,-62.02"/>
</a>
</g>
</g>
<!-- Node4 -->
<g id="Node000004" class="node">
<title>Node4</title>
<g id="a_Node000004"><a xlink:href="leaf-mempool_8c.html#a1cac56e9fbf416e1410563bfb49290b4" target="_top" xlink:title=" ">
<polygon fill="white" stroke="#666666" points="492.25,-19.25 424.5,-19.25 424.5,0 492.25,0 492.25,-19.25"/>
<text xml:space="preserve" text-anchor="middle" x="458.38" y="-5.75" font-family="Helvetica,sans-Serif" font-size="10.00">delink_node</text>
</a>
</g>
</g>
<!-- Node2&#45;&gt;Node4 -->
<g id="edge3_Node000002_Node000004" class="edge">
<title>Node2&#45;&gt;Node4</title>
<g id="a_edge3_Node000002_Node000004"><a xlink:title=" ">
<path fill="none" stroke="#63b8ff" d="M341.35,-73.51C345.71,-71.17 350.12,-68.52 354,-65.62 372.65,-51.72 370.01,-39.52 390,-27.62 397.08,-23.41 405.16,-20.17 413.21,-17.67"/>
<polygon fill="#63b8ff" stroke="#63b8ff" points="413.87,-21.12 422.6,-15.11 412.03,-14.36 413.87,-21.12"/>
</a>
</g>
</g>
<!-- Node5 -->
<g id="Node000005" class="node">
<title>Node5</title>
<g id="a_Node000005"><a xlink:href="leaf_8c.html#a389f39fbcc732ce345106b995b3a434d" target="_top" xlink:title=" ">
<polygon fill="white" stroke="#666666" points="526.75,-130.25 390,-130.25 390,-111 526.75,-111 526.75,-130.25"/>
<text xml:space="preserve" text-anchor="middle" x="458.38" y="-116.75" font-family="Helvetica,sans-Serif" font-size="10.00">LEAF_internalErrorCallback</text>
</a>
</g>
</g>
<!-- Node2&#45;&gt;Node5 -->
<g id="edge4_Node000002_Node000005" class="edge">
<title>Node2&#45;&gt;Node5</title>
<g id="a_edge4_Node000002_Node000005"><a xlink:title=" ">
<path fill="none" stroke="#63b8ff" d="M351.76,-92.49C368.72,-97.01 389.67,-102.59 408.43,-107.59"/>
<polygon fill="#63b8ff" stroke="#63b8ff" points="407.45,-110.95 418.01,-110.14 409.25,-104.18 407.45,-110.95"/>
</a>
</g>
</g>
<!-- Node6 -->
<g id="Node000006" class="node">
<title>Node6</title>
<g id="a_Node000006"><a xlink:href="leaf-mempool_8c.html#a86e9ff1e29b71d059a27641ff1b4c00e" target="_top" xlink:title=" ">
<polygon fill="white" stroke="#666666" points="492.25,-93.25 424.5,-93.25 424.5,-74 492.25,-74 492.25,-93.25"/>
<text xml:space="preserve" text-anchor="middle" x="458.38" y="-79.75" font-family="Helvetica,sans-Serif" font-size="10.00">mpool_align</text>
</a>
</g>
</g>
<!-- Node2&#45;&gt;Node6 -->
<g id="edge5_Node000002_Node000006" class="edge">
<title>Node2&#45;&gt;Node6</title>
<g id="a_edge5_Node000002_Node000006"><a xlink:title=" ">
<path fill="none" stroke="#63b8ff" d="M351.76,-83.62C370.14,-83.62 393.21,-83.62 413.1,-83.62"/>
<polygon fill="#63b8ff" stroke="#63b8ff" points="412.87,-87.13 422.87,-83.63 412.87,-80.13 412.87,-87.13"/>
</a>
</g>
</g>
<!-- Node7&#45;&gt;Node3 -->
<g id="edge7_Node000007_Node000003" class="edge">
<title>Node7&#45;&gt;Node3</title>
<g id="a_edge7_Node000007_Node000003"><a xlink:title=" ">
<path fill="none" stroke="#63b8ff" d="M354.26,-46.62C371.97,-46.62 393.52,-46.62 412.34,-46.62"/>
<polygon fill="#63b8ff" stroke="#63b8ff" points="412.13,-50.13 422.13,-46.63 412.13,-43.13 412.13,-50.13"/>
</a>
</g>
</g>
<!-- Node7&#45;&gt;Node4 -->
<g id="edge8_Node000007_Node000004" class="edge">
<title>Node7&#45;&gt;Node4</title>
<g id="a_edge8_Node000007_Node000004"><a xlink:title=" ">
<path fill="none" stroke="#63b8ff" d="M354.26,-37.1C372.18,-32.32 394.05,-26.5 413.03,-21.44"/>
<polygon fill="#63b8ff" stroke="#63b8ff" points="413.89,-24.83 422.65,-18.88 412.09,-18.07 413.89,-24.83"/>
</a>
</g>
</g>
<!-- Node7&#45;&gt;Node5 -->
<g id="edge9_Node000007_Node000005" class="edge">
<title>Node7&#45;&gt;Node5</title>
<g id="a_edge9_Node000007_Node000005"><a xlink:title=" ">
<path fill="none" stroke="#63b8ff" d="M341.35,-56.74C345.71,-59.08 350.12,-61.73 354,-64.62 372.65,-78.53 370.01,-90.73 390,-102.62 392.16,-103.91 394.4,-105.1 396.72,-106.21"/>
<polygon fill="#63b8ff" stroke="#63b8ff" points="395.19,-109.37 405.77,-109.98 397.88,-102.9 395.19,-109.37"/>
</a>
</g>
</g>
<!-- Node7&#45;&gt;Node6 -->
<g id="edge10_Node000007_Node000006" class="edge">
<title>Node7&#45;&gt;Node6</title>
<g id="a_edge10_Node000007_Node000006"><a xlink:title=" ">
<path fill="none" stroke="#63b8ff" d="M354.26,-56.15C372.18,-60.93 394.05,-66.75 413.03,-71.81"/>
<polygon fill="#63b8ff" stroke="#63b8ff" points="412.09,-75.18 422.65,-74.37 413.89,-68.42 412.09,-75.18"/>
</a>
</g>
</g>
<!-- Node8&#45;&gt;Node2 -->
<g id="edge12_Node000008_Node000002" class="edge">
<title>Node8&#45;&gt;Node2</title>
<g id="a_edge12_Node000008_Node000002"><a xlink:title=" ">
<path fill="none" stroke="#63b8ff" d="M230.73,-111.54C244.3,-107.13 260.41,-101.88 275,-97.13"/>
<polygon fill="#63b8ff" stroke="#63b8ff" points="275.92,-100.52 284.34,-94.09 273.75,-93.86 275.92,-100.52"/>
</a>
</g>
</g>
</g>
</svg>

<g id="navigator" transform="translate(0 0)" fill="#404254">
  <rect fill="#f2f5e9" fill-opacity="0.5" stroke="#606060" stroke-width=".5" x="0" y="0" width="60" height="60"/>
  <use id="zoomplus" xlink:href="#zoomPlus" x="17" y="9" onmousedown="handleZoom(evt,'in')"/>
  <use id="zoomminus" xlink:href="#zoomMin" x="42" y="9" onmousedown="handleZoom(evt,'out')"/>
  <use id="reset" xlink:href="#resetDef" x="30" y="36" onmousedown="handleReset()"/>
   <use id="arrowup" xlink:href="#arrowUp" x="0" y="0" onmousedown="handlePan(0,-1)"/>
  <use id="arrowright" xlink:href="#arrowRight" x="0" y="0" onmousedown="handlePan(1,0)"/>
  <use id="arrowdown" xlink:href="#arrowDown" x="0" y="0" onmousedown="handlePan(0,1)"/>
  <use id="arrowleft" xlink:href="#arrowLeft" x="0" y="0" onmousedown="handlePan(-1,0)"/>
</g>
<svg viewBox="0 0 15 15" width="100%" height="30px" preserveAspectRatio="xMaxYMin meet">
 <g id="arrow_out" transform="scale(0.3 0.3)">
  <a xlink:href="group__tsimplepoly_ga67391919fd2cf8b80b80b9a74f0a2f02_cgraph_org.svg" target="_base">
   <rect id="button" ry="5" rx="5" y="6" x="6" height="38" width="38"
        fill="#f2f5e9" fill-opacity="0.5" stroke="#606060" stroke-width="1.0"/>
   <path id="arrow"
     d="M 11.500037,31.436501 C 11.940474,20.09759 22.043105,11.32322 32.158766,21.979434 L 37.068811,17.246167 C 37.068811,17.246167 37.088388,32 37.088388,32 L 22.160133,31.978069 C 22.160133,31.978069 26.997745,27.140456 26.997745,27.140456 C 18.528582,18.264221 13.291696,25.230495 11.500037,31.436501 z"
     style="fill:#404040;"/>
  </a>
 </g>
</svg>

<style type='text/css'>
<![CDATA[
[data-mouse-over-selected='false'] { opacity: 0.7; }
[data-mouse-over-selected='true']  { opacity: 1.0; }
]]>
</style>
<script type="application/ecmascript"><![CDATA[
document.addEventListener('DOMContentLoaded', (event) => {
  highlightEdges();
  highlightAdjacentNodes();
});
]]></script>
</svg>
