<?xml version="1.0" encoding="UTF-8" standalone="no"?>
<!DOCTYPE svg PUBLIC "-//W3C//DTD SVG 1.1//EN"
 "http://www.w3.org/Graphics/SVG/1.1/DTD/svg11.dtd">
<!-- Generated by graphviz version 13.0.1 (20250615.1724)
 -->
<!-- Title: tWaveTableS_init Pages: 1 -->
<svg width="863pt" height="344pt"
 viewBox="0.00 0.00 863.00 344.00" xmlns="http://www.w3.org/2000/svg" xmlns:xlink="http://www.w3.org/1999/xlink">
<g id="graph0" class="graph" transform="scale(1 1) rotate(0) translate(4 339.97)">
<title>tWaveTableS_init</title>
<!-- Node1 -->
<g id="Node000001" class="node">
<title>Node1</title>
<g id="a_Node000001"><a xlink:title="Initialize a tWaveTableS to the default mempool of a LEAF instance.">
<polygon fill="#999999" stroke="#666666" points="91.75,-150.25 0,-150.25 0,-131 91.75,-131 91.75,-150.25"/>
<text xml:space="preserve" text-anchor="middle" x="45.88" y="-136.75" font-family="Helvetica,sans-Serif" font-size="10.00">tWaveTableS_init</text>
</a>
</g>
</g>
<!-- Node2 -->
<g id="Node000002" class="node">
<title>Node2</title>
<g id="a_Node000002"><a xlink:href="group__ttwavetables.html#ga283a12a88b35dfab587dcb167fd2b2c5" target="_top" xlink:title="Initialize a tWaveTableS to a specified mempool.">
<polygon fill="white" stroke="#666666" points="249.5,-150.25 127.75,-150.25 127.75,-131 249.5,-131 249.5,-150.25"/>
<text xml:space="preserve" text-anchor="middle" x="188.62" y="-136.75" font-family="Helvetica,sans-Serif" font-size="10.00">tWaveTableS_initToPool</text>
</a>
</g>
</g>
<!-- Node1&#45;&gt;Node2 -->
<g id="edge1_Node000001_Node000002" class="edge">
<title>Node1&#45;&gt;Node2</title>
<g id="a_edge1_Node000001_Node000002"><a xlink:title=" ">
<path fill="none" stroke="#63b8ff" d="M92.18,-140.62C99.78,-140.62 107.82,-140.62 115.88,-140.62"/>
<polygon fill="#63b8ff" stroke="#63b8ff" points="115.74,-144.13 125.74,-140.63 115.74,-137.13 115.74,-144.13"/>
</a>
</g>
</g>
<!-- Node3 -->
<g id="Node000003" class="node">
<title>Node3</title>
<g id="a_Node000003"><a xlink:href="leaf-mempool_8c.html#a98a115a6f85f30795e172fd18db7fba4" target="_top" xlink:title=" ">
<polygon fill="white" stroke="#666666" points="682.25,-261.25 614.5,-261.25 614.5,-242 682.25,-242 682.25,-261.25"/>
<text xml:space="preserve" text-anchor="middle" x="648.38" y="-247.75" font-family="Helvetica,sans-Serif" font-size="10.00">mpool_alloc</text>
</a>
</g>
</g>
<!-- Node2&#45;&gt;Node3 -->
<g id="edge2_Node000002_Node000003" class="edge">
<title>Node2&#45;&gt;Node3</title>
<g id="a_edge2_Node000002_Node000003"><a xlink:title=" ">
<path fill="none" stroke="#63b8ff" d="M194,-150.56C205.29,-175.02 237.92,-238.38 285.5,-269.62 395.36,-341.77 455.04,-354.69 578.5,-309.62 600.18,-301.71 619.77,-283.63 632.46,-269.75"/>
<polygon fill="#63b8ff" stroke="#63b8ff" points="634.83,-272.35 638.76,-262.52 629.55,-267.75 634.83,-272.35"/>
</a>
</g>
</g>
<!-- Node8 -->
<g id="Node000008" class="node">
<title>Node8</title>
<g id="a_Node000008"><a xlink:href="group__tbutterworth.html#ga340f64a2f39d6a75dddbff0664c6a0c2" target="_top" xlink:title="Free a tButterworth from its mempool.">
<polygon fill="white" stroke="#666666" points="398.25,-169.25 307.25,-169.25 307.25,-150 398.25,-150 398.25,-169.25"/>
<text xml:space="preserve" text-anchor="middle" x="352.75" y="-155.75" font-family="Helvetica,sans-Serif" font-size="10.00">tButterworth_free</text>
</a>
</g>
</g>
<!-- Node2&#45;&gt;Node8 -->
<g id="edge7_Node000002_Node000008" class="edge">
<title>Node2&#45;&gt;Node8</title>
<g id="a_edge7_Node000002_Node000008"><a xlink:title=" ">
<path fill="none" stroke="#63b8ff" d="M249.99,-147.7C264.99,-149.46 280.99,-151.33 295.77,-153.06"/>
<polygon fill="#63b8ff" stroke="#63b8ff" points="294.94,-156.49 305.28,-154.18 295.76,-149.54 294.94,-156.49"/>
</a>
</g>
</g>
<!-- Node11 -->
<g id="Node000011" class="node">
<title>Node11</title>
<g id="a_Node000011"><a xlink:href="group__tbutterworth.html#ga25c8bb13823baadde8e20e4b8d50437d" target="_top" xlink:title="Initialize a tButterworth to a specified mempool.">
<polygon fill="white" stroke="#666666" points="411.38,-224.25 294.12,-224.25 294.12,-205 411.38,-205 411.38,-224.25"/>
<text xml:space="preserve" text-anchor="middle" x="352.75" y="-210.75" font-family="Helvetica,sans-Serif" font-size="10.00">tButterworth_initToPool</text>
</a>
</g>
</g>
<!-- Node2&#45;&gt;Node11 -->
<g id="edge13_Node000002_Node000011" class="edge">
<title>Node2&#45;&gt;Node11</title>
<g id="a_edge13_Node000002_Node000011"><a xlink:title=" ">
<path fill="none" stroke="#63b8ff" d="M211.49,-150.6C239.29,-163.29 287.51,-185.31 319.53,-199.92"/>
<polygon fill="#63b8ff" stroke="#63b8ff" points="317.79,-202.97 328.34,-203.94 320.69,-196.6 317.79,-202.97"/>
</a>
</g>
</g>
<!-- Node13 -->
<g id="Node000013" class="node">
<title>Node13</title>
<g id="a_Node000013"><a xlink:href="leaf-filters_8c.html#ac04a3575de7cb23557ce1c5fdac9c6e6" target="_top" xlink:title=" ">
<polygon fill="white" stroke="#666666" points="402.38,-93.25 303.12,-93.25 303.12,-74 402.38,-74 402.38,-93.25"/>
<text xml:space="preserve" text-anchor="middle" x="352.75" y="-79.75" font-family="Helvetica,sans-Serif" font-size="10.00">tButterworth_setF2</text>
</a>
</g>
</g>
<!-- Node2&#45;&gt;Node13 -->
<g id="edge17_Node000002_Node000013" class="edge">
<title>Node2&#45;&gt;Node13</title>
<g id="a_edge17_Node000002_Node000013"><a xlink:title=" ">
<path fill="none" stroke="#63b8ff" d="M218.24,-130.57C244.43,-121.36 283.44,-107.64 312.53,-97.41"/>
<polygon fill="#63b8ff" stroke="#63b8ff" points="313.45,-100.8 321.72,-94.18 311.13,-94.2 313.45,-100.8"/>
</a>
</g>
</g>
<!-- Node16 -->
<g id="Node000016" class="node">
<title>Node16</title>
<g id="a_Node000016"><a xlink:href="leaf-filters_8c.html#af6b42900df7cb8f021537d29a6aca3f1" target="_top" xlink:title=" ">
<polygon fill="white" stroke="#666666" points="397.88,-56.25 307.62,-56.25 307.62,-37 397.88,-37 397.88,-56.25"/>
<text xml:space="preserve" text-anchor="middle" x="352.75" y="-42.75" font-family="Helvetica,sans-Serif" font-size="10.00">tButterworth_tick</text>
</a>
</g>
</g>
<!-- Node2&#45;&gt;Node16 -->
<g id="edge20_Node000002_Node000016" class="edge">
<title>Node2&#45;&gt;Node16</title>
<g id="a_edge20_Node000002_Node000016"><a xlink:title=" ">
<path fill="none" stroke="#63b8ff" d="M199.3,-130.68C215.6,-114.49 250.24,-82.44 285.5,-64.62 289.01,-62.85 292.72,-61.24 296.51,-59.77"/>
<polygon fill="#63b8ff" stroke="#63b8ff" points="297.61,-63.09 305.91,-56.5 295.32,-56.48 297.61,-63.09"/>
</a>
</g>
</g>
<!-- Node18 -->
<g id="Node000018" class="node">
<title>Node18</title>
<g id="a_Node000018"><a xlink:href="leaf-distortion_8c.html#adc2fd76b4ba489ea3ff857394e742e7f" target="_top" xlink:title=" ">
<polygon fill="white" stroke="#666666" points="420,-19.25 285.5,-19.25 285.5,0 420,0 420,-19.25"/>
<text xml:space="preserve" text-anchor="middle" x="352.75" y="-5.75" font-family="Helvetica,sans-Serif" font-size="10.00">tOversampler_downsample</text>
</a>
</g>
</g>
<!-- Node2&#45;&gt;Node18 -->
<g id="edge22_Node000002_Node000018" class="edge">
<title>Node2&#45;&gt;Node18</title>
<g id="a_edge22_Node000002_Node000018"><a xlink:title=" ">
<path fill="none" stroke="#63b8ff" d="M195.15,-130.73C207.98,-108.67 242.08,-55.23 285.5,-27.62 287.39,-26.43 289.35,-25.31 291.37,-24.26"/>
<polygon fill="#63b8ff" stroke="#63b8ff" points="292.75,-27.48 300.48,-20.23 289.92,-21.08 292.75,-27.48"/>
</a>
</g>
</g>
<!-- Node19 -->
<g id="Node000019" class="node">
<title>Node19</title>
<g id="a_Node000019"><a xlink:href="group__toversampler.html#ga809c183c7443aa77ae6233e8c5276218" target="_top" xlink:title="Free a tOversampler from its mempool.">
<polygon fill="white" stroke="#666666" points="565.38,-111.25 469.12,-111.25 469.12,-92 565.38,-92 565.38,-111.25"/>
<text xml:space="preserve" text-anchor="middle" x="517.25" y="-97.75" font-family="Helvetica,sans-Serif" font-size="10.00">tOversampler_free</text>
</a>
</g>
</g>
<!-- Node2&#45;&gt;Node19 -->
<g id="edge23_Node000002_Node000019" class="edge">
<title>Node2&#45;&gt;Node19</title>
<g id="a_edge23_Node000002_Node000019"><a xlink:title=" ">
<path fill="none" stroke="#63b8ff" d="M249.91,-133.43C309.1,-126.36 398.8,-115.65 457.46,-108.64"/>
<polygon fill="#63b8ff" stroke="#63b8ff" points="457.75,-112.14 467.26,-107.47 456.92,-105.18 457.75,-112.14"/>
</a>
</g>
</g>
<!-- Node20 -->
<g id="Node000020" class="node">
<title>Node20</title>
<g id="a_Node000020"><a xlink:href="group__toversampler.html#ga65ae3bd40ead130ffc4a81d47bdc61fe" target="_top" xlink:title="Initialize a tOversampler to a specified mempool.">
<polygon fill="white" stroke="#666666" points="578.5,-300.25 456,-300.25 456,-281 578.5,-281 578.5,-300.25"/>
<text xml:space="preserve" text-anchor="middle" x="517.25" y="-286.75" font-family="Helvetica,sans-Serif" font-size="10.00">tOversampler_initToPool</text>
</a>
</g>
</g>
<!-- Node2&#45;&gt;Node20 -->
<g id="edge25_Node000002_Node000020" class="edge">
<title>Node2&#45;&gt;Node20</title>
<g id="a_edge25_Node000002_Node000020"><a xlink:title=" ">
<path fill="none" stroke="#63b8ff" d="M196.85,-150.51C211.38,-169.65 246.15,-211.81 285.5,-233.62 334.78,-260.94 397.14,-275.34 444.61,-282.82"/>
<polygon fill="#63b8ff" stroke="#63b8ff" points="443.82,-286.24 454.23,-284.27 444.86,-279.32 443.82,-286.24"/>
</a>
</g>
</g>
<!-- Node4 -->
<g id="Node000004" class="node">
<title>Node4</title>
<g id="a_Node000004"><a xlink:href="leaf-mempool_8c.html#a03d72131ceaf28939aa5fd5ebd87807c" target="_top" xlink:title=" ">
<polygon fill="white" stroke="#666666" points="821.25,-298.25 752,-298.25 752,-279 821.25,-279 821.25,-298.25"/>
<text xml:space="preserve" text-anchor="middle" x="786.62" y="-284.75" font-family="Helvetica,sans-Serif" font-size="10.00">create_node</text>
</a>
</g>
</g>
<!-- Node3&#45;&gt;Node4 -->
<g id="edge3_Node000003_Node000004" class="edge">
<title>Node3&#45;&gt;Node4</title>
<g id="a_edge3_Node000003_Node000004"><a xlink:title=" ">
<path fill="none" stroke="#63b8ff" d="M682.64,-260.86C693.94,-263.98 706.64,-267.47 718.25,-270.62 725.47,-272.58 733.12,-274.65 740.58,-276.65"/>
<polygon fill="#63b8ff" stroke="#63b8ff" points="739.65,-280.02 750.22,-279.22 741.46,-273.26 739.65,-280.02"/>
</a>
</g>
</g>
<!-- Node5 -->
<g id="Node000005" class="node">
<title>Node5</title>
<g id="a_Node000005"><a xlink:href="leaf-mempool_8c.html#a1cac56e9fbf416e1410563bfb49290b4" target="_top" xlink:title=" ">
<polygon fill="white" stroke="#666666" points="820.5,-224.25 752.75,-224.25 752.75,-205 820.5,-205 820.5,-224.25"/>
<text xml:space="preserve" text-anchor="middle" x="786.62" y="-210.75" font-family="Helvetica,sans-Serif" font-size="10.00">delink_node</text>
</a>
</g>
</g>
<!-- Node3&#45;&gt;Node5 -->
<g id="edge4_Node000003_Node000005" class="edge">
<title>Node3&#45;&gt;Node5</title>
<g id="a_edge4_Node000003_Node000005"><a xlink:title=" ">
<path fill="none" stroke="#63b8ff" d="M682.64,-242.39C693.94,-239.27 706.64,-235.78 718.25,-232.62 725.71,-230.6 733.64,-228.47 741.33,-226.4"/>
<polygon fill="#63b8ff" stroke="#63b8ff" points="742.15,-229.81 750.91,-223.84 740.34,-223.05 742.15,-229.81"/>
</a>
</g>
</g>
<!-- Node6 -->
<g id="Node000006" class="node">
<title>Node6</title>
<g id="a_Node000006"><a xlink:href="leaf_8c.html#a389f39fbcc732ce345106b995b3a434d" target="_top" xlink:title=" ">
<polygon fill="white" stroke="#666666" points="855,-187.25 718.25,-187.25 718.25,-168 855,-168 855,-187.25"/>
<text xml:space="preserve" text-anchor="middle" x="786.62" y="-173.75" font-family="Helvetica,sans-Serif" font-size="10.00">LEAF_internalErrorCallback</text>
</a>
</g>
</g>
<!-- Node3&#45;&gt;Node6 -->
<g id="edge5_Node000003_Node000006" class="edge">
<title>Node3&#45;&gt;Node6</title>
<g id="a_edge5_Node000003_Node000006"><a xlink:title=" ">
<path fill="none" stroke="#63b8ff" d="M658.7,-241.82C671.13,-229.3 694.36,-207.81 718.25,-195.62 721.13,-194.15 724.15,-192.8 727.23,-191.54"/>
<polygon fill="#63b8ff" stroke="#63b8ff" points="728.3,-194.88 736.5,-188.18 725.91,-188.3 728.3,-194.88"/>
</a>
</g>
</g>
<!-- Node7 -->
<g id="Node000007" class="node">
<title>Node7</title>
<g id="a_Node000007"><a xlink:href="leaf-mempool_8c.html#a86e9ff1e29b71d059a27641ff1b4c00e" target="_top" xlink:title=" ">
<polygon fill="white" stroke="#666666" points="820.5,-261.25 752.75,-261.25 752.75,-242 820.5,-242 820.5,-261.25"/>
<text xml:space="preserve" text-anchor="middle" x="786.62" y="-247.75" font-family="Helvetica,sans-Serif" font-size="10.00">mpool_align</text>
</a>
</g>
</g>
<!-- Node3&#45;&gt;Node7 -->
<g id="edge6_Node000003_Node000007" class="edge">
<title>Node3&#45;&gt;Node7</title>
<g id="a_edge6_Node000003_Node000007"><a xlink:title=" ">
<path fill="none" stroke="#63b8ff" d="M682.71,-251.62C700.32,-251.62 722.18,-251.62 741.21,-251.62"/>
<polygon fill="#63b8ff" stroke="#63b8ff" points="741.13,-255.13 751.13,-251.63 741.13,-248.13 741.13,-255.13"/>
</a>
</g>
</g>
<!-- Node9 -->
<g id="Node000009" class="node">
<title>Node9</title>
<g id="a_Node000009"><a xlink:href="leaf-mempool_8c.html#ab22403c96346dcc0a1c2437a00e616fc" target="_top" xlink:title=" ">
<polygon fill="white" stroke="#666666" points="680.38,-187.25 616.38,-187.25 616.38,-168 680.38,-168 680.38,-187.25"/>
<text xml:space="preserve" text-anchor="middle" x="648.38" y="-173.75" font-family="Helvetica,sans-Serif" font-size="10.00">mpool_free</text>
</a>
</g>
</g>
<!-- Node8&#45;&gt;Node9 -->
<g id="edge8_Node000008_Node000009" class="edge">
<title>Node8&#45;&gt;Node9</title>
<g id="a_edge8_Node000008_Node000009"><a xlink:title=" ">
<path fill="none" stroke="#63b8ff" d="M398.34,-155.8C443.85,-152.75 516.44,-150.22 578.5,-158.62 587.76,-159.88 597.54,-162.04 606.73,-164.47"/>
<polygon fill="#63b8ff" stroke="#63b8ff" points="605.54,-167.77 616.11,-167.11 607.43,-161.03 605.54,-167.77"/>
</a>
</g>
</g>
<!-- Node10 -->
<g id="Node000010" class="node">
<title>Node10</title>
<g id="a_Node000010"><a xlink:href="group__tsvf.html#ga364e2d82cc7d843ccf63c32f6b6f6c28" target="_top" xlink:title="Free a tSVF from its mempool.">
<polygon fill="white" stroke="#666666" points="547.38,-187.25 487.12,-187.25 487.12,-168 547.38,-168 547.38,-187.25"/>
<text xml:space="preserve" text-anchor="middle" x="517.25" y="-173.75" font-family="Helvetica,sans-Serif" font-size="10.00">tSVF_free</text>
</a>
</g>
</g>
<!-- Node8&#45;&gt;Node10 -->
<g id="edge11_Node000008_Node000010" class="edge">
<title>Node8&#45;&gt;Node10</title>
<g id="a_edge11_Node000008_Node000010"><a xlink:title=" ">
<path fill="none" stroke="#63b8ff" d="M398.58,-164.59C422.69,-167.26 452.2,-170.53 475.63,-173.13"/>
<polygon fill="#63b8ff" stroke="#63b8ff" points="475.1,-176.59 485.43,-174.21 475.87,-169.63 475.1,-176.59"/>
</a>
</g>
</g>
<!-- Node9&#45;&gt;Node5 -->
<g id="edge9_Node000009_Node000005" class="edge">
<title>Node9&#45;&gt;Node5</title>
<g id="a_edge9_Node000009_Node000005"><a xlink:title=" ">
<path fill="none" stroke="#63b8ff" d="M680.56,-186.29C692.36,-189.55 705.92,-193.28 718.25,-196.62 725.71,-198.65 733.64,-200.78 741.33,-202.85"/>
<polygon fill="#63b8ff" stroke="#63b8ff" points="740.34,-206.2 750.91,-205.41 742.15,-199.44 740.34,-206.2"/>
</a>
</g>
</g>
<!-- Node9&#45;&gt;Node6 -->
<g id="edge10_Node000009_Node000006" class="edge">
<title>Node9&#45;&gt;Node6</title>
<g id="a_edge10_Node000009_Node000006"><a xlink:title=" ">
<path fill="none" stroke="#63b8ff" d="M680.63,-177.62C688.56,-177.62 697.45,-177.62 706.61,-177.62"/>
<polygon fill="#63b8ff" stroke="#63b8ff" points="706.35,-181.13 716.35,-177.63 706.35,-174.13 706.35,-181.13"/>
</a>
</g>
</g>
<!-- Node10&#45;&gt;Node9 -->
<g id="edge12_Node000010_Node000009" class="edge">
<title>Node10&#45;&gt;Node9</title>
<g id="a_edge12_Node000010_Node000009"><a xlink:title=" ">
<path fill="none" stroke="#63b8ff" d="M547.87,-177.62C564.69,-177.62 586.03,-177.62 604.63,-177.62"/>
<polygon fill="#63b8ff" stroke="#63b8ff" points="604.57,-181.13 614.57,-177.63 604.57,-174.13 604.57,-181.13"/>
</a>
</g>
</g>
<!-- Node11&#45;&gt;Node3 -->
<g id="edge14_Node000011_Node000003" class="edge">
<title>Node11&#45;&gt;Node3</title>
<g id="a_edge14_Node000011_Node000003"><a xlink:title=" ">
<path fill="none" stroke="#63b8ff" d="M403.01,-224.71C419.77,-227.89 438.65,-231.2 456,-233.62 506.02,-240.61 563.78,-245.63 602.65,-248.56"/>
<polygon fill="#63b8ff" stroke="#63b8ff" points="602.34,-252.05 612.57,-249.29 602.86,-245.07 602.34,-252.05"/>
</a>
</g>
</g>
<!-- Node12 -->
<g id="Node000012" class="node">
<title>Node12</title>
<g id="a_Node000012"><a xlink:href="group__tsvf.html#ga885c63faff567ce769a3112b93fbc27e" target="_top" xlink:title="Initialize a tSVF to a specified mempool.">
<polygon fill="white" stroke="#666666" points="560.5,-224.25 474,-224.25 474,-205 560.5,-205 560.5,-224.25"/>
<text xml:space="preserve" text-anchor="middle" x="517.25" y="-210.75" font-family="Helvetica,sans-Serif" font-size="10.00">tSVF_initToPool</text>
</a>
</g>
</g>
<!-- Node11&#45;&gt;Node12 -->
<g id="edge15_Node000011_Node000012" class="edge">
<title>Node11&#45;&gt;Node12</title>
<g id="a_edge15_Node000011_Node000012"><a xlink:title=" ">
<path fill="none" stroke="#63b8ff" d="M411.5,-214.62C427.94,-214.62 445.79,-214.62 462.02,-214.62"/>
<polygon fill="#63b8ff" stroke="#63b8ff" points="461.99,-218.13 471.99,-214.63 461.99,-211.13 461.99,-218.13"/>
</a>
</g>
</g>
<!-- Node12&#45;&gt;Node3 -->
<g id="edge16_Node000012_Node000003" class="edge">
<title>Node12&#45;&gt;Node3</title>
<g id="a_edge16_Node000012_Node000003"><a xlink:title=" ">
<path fill="none" stroke="#63b8ff" d="M553.53,-224.74C568.94,-229.15 587.18,-234.38 603.46,-239.04"/>
<polygon fill="#63b8ff" stroke="#63b8ff" points="602.32,-242.36 612.9,-241.75 604.25,-235.63 602.32,-242.36"/>
</a>
</g>
</g>
<!-- Node14 -->
<g id="Node000014" class="node">
<title>Node14</title>
<g id="a_Node000014"><a xlink:href="leaf-filters_8c.html#a16646ef9497a89b50214cfebb99df4ba" target="_top" xlink:title=" ">
<polygon fill="white" stroke="#666666" points="555.62,-74.25 478.88,-74.25 478.88,-55 555.62,-55 555.62,-74.25"/>
<text xml:space="preserve" text-anchor="middle" x="517.25" y="-60.75" font-family="Helvetica,sans-Serif" font-size="10.00">tSVF_setFreq</text>
</a>
</g>
</g>
<!-- Node13&#45;&gt;Node14 -->
<g id="edge18_Node000013_Node000014" class="edge">
<title>Node13&#45;&gt;Node14</title>
<g id="a_edge18_Node000013_Node000014"><a xlink:title=" ">
<path fill="none" stroke="#63b8ff" d="M402.51,-77.92C422.92,-75.54 446.61,-72.77 467.07,-70.38"/>
<polygon fill="#63b8ff" stroke="#63b8ff" points="467.35,-73.87 476.87,-69.23 466.53,-66.91 467.35,-73.87"/>
</a>
</g>
</g>
<!-- Node15 -->
<g id="Node000015" class="node">
<title>Node15</title>
<g id="a_Node000015"><a xlink:href="leaf-math_8h.html#ad4bddb22c798cb40b789a727a48b81fd" target="_top" xlink:title=" ">
<polygon fill="white" stroke="#666666" points="678.88,-74.25 617.88,-74.25 617.88,-55 678.88,-55 678.88,-74.25"/>
<text xml:space="preserve" text-anchor="middle" x="648.38" y="-60.75" font-family="Helvetica,sans-Serif" font-size="10.00">LEAF_clip</text>
</a>
</g>
</g>
<!-- Node14&#45;&gt;Node15 -->
<g id="edge19_Node000014_Node000015" class="edge">
<title>Node14&#45;&gt;Node15</title>
<g id="a_edge19_Node000014_Node000015"><a xlink:title=" ">
<path fill="none" stroke="#63b8ff" d="M555.95,-64.62C571.76,-64.62 590.19,-64.62 606.34,-64.62"/>
<polygon fill="#63b8ff" stroke="#63b8ff" points="606.12,-68.13 616.12,-64.63 606.12,-61.13 606.12,-68.13"/>
</a>
</g>
</g>
<!-- Node17 -->
<g id="Node000017" class="node">
<title>Node17</title>
<g id="a_Node000017"><a xlink:href="leaf-filters_8c.html#a7d7352960344d632ff1631119dd49ddb" target="_top" xlink:title=" ">
<polygon fill="white" stroke="#666666" points="547,-37.25 487.5,-37.25 487.5,-18 547,-18 547,-37.25"/>
<text xml:space="preserve" text-anchor="middle" x="517.25" y="-23.75" font-family="Helvetica,sans-Serif" font-size="10.00">tSVF_tick</text>
</a>
</g>
</g>
<!-- Node16&#45;&gt;Node17 -->
<g id="edge21_Node000016_Node000017" class="edge">
<title>Node16&#45;&gt;Node17</title>
<g id="a_edge21_Node000016_Node000017"><a xlink:title=" ">
<path fill="none" stroke="#63b8ff" d="M398.15,-41.43C422.43,-38.59 452.28,-35.1 475.89,-32.34"/>
<polygon fill="#63b8ff" stroke="#63b8ff" points="476.24,-35.83 485.77,-31.19 475.43,-28.87 476.24,-35.83"/>
</a>
</g>
</g>
<!-- Node19&#45;&gt;Node9 -->
<g id="edge24_Node000019_Node000009" class="edge">
<title>Node19&#45;&gt;Node9</title>
<g id="a_edge24_Node000019_Node000009"><a xlink:title=" ">
<path fill="none" stroke="#63b8ff" d="M548.09,-111.7C558.03,-115.52 568.98,-120.27 578.5,-125.62 596.15,-135.56 614.36,-149.51 627.63,-160.45"/>
<polygon fill="#63b8ff" stroke="#63b8ff" points="625.27,-163.05 635.17,-166.82 629.79,-157.7 625.27,-163.05"/>
</a>
</g>
</g>
<!-- Node20&#45;&gt;Node3 -->
<g id="edge26_Node000020_Node000003" class="edge">
<title>Node20&#45;&gt;Node3</title>
<g id="a_edge26_Node000020_Node000003"><a xlink:title=" ">
<path fill="none" stroke="#63b8ff" d="M551.5,-280.58C567.32,-275.8 586.44,-270.03 603.43,-264.9"/>
<polygon fill="#63b8ff" stroke="#63b8ff" points="604.22,-268.31 612.79,-262.07 602.2,-261.61 604.22,-268.31"/>
</a>
</g>
</g>
</g>
</svg>
