<?xml version="1.0" encoding="UTF-8" standalone="no"?>
<!DOCTYPE svg PUBLIC "-//W3C//DTD SVG 1.1//EN"
 "http://www.w3.org/Graphics/SVG/1.1/DTD/svg11.dtd">
<!-- Generated by graphviz version 13.0.1 (20250615.1724)
 -->
<!-- Title: tSimpleLivingString2_initToPool Pages: 1 -->
<svg width="740pt" height="428pt"
 viewBox="0.00 0.00 740.00 428.00" xmlns="http://www.w3.org/2000/svg" xmlns:xlink="http://www.w3.org/1999/xlink">
<g id="graph0" class="graph" transform="scale(1 1) rotate(0) translate(4 423.88)">
<title>tSimpleLivingString2_initToPool</title>
<!-- Node1 -->
<g id="Node000001" class="node">
<title>Node1</title>
<g id="a_Node000001"><a xlink:title=" ">
<polygon fill="#999999" stroke="#666666" points="105.25,-197.5 0,-197.5 0,-167 105.25,-167 105.25,-197.5"/>
<text xml:space="preserve" text-anchor="start" x="8" y="-184" font-family="Helvetica,sans-Serif" font-size="10.00">tSimpleLivingString2</text>
<text xml:space="preserve" text-anchor="middle" x="52.62" y="-172.75" font-family="Helvetica,sans-Serif" font-size="10.00">_initToPool</text>
</a>
</g>
</g>
<!-- Node2 -->
<g id="Node000002" class="node">
<title>Node2</title>
<g id="a_Node000002"><a xlink:href="leaf-mempool_8c.html#a98a115a6f85f30795e172fd18db7fba4" target="_top" xlink:title=" ">
<polygon fill="white" stroke="#666666" points="556.38,-267.88 488.62,-267.88 488.62,-248.62 556.38,-248.62 556.38,-267.88"/>
<text xml:space="preserve" text-anchor="middle" x="522.5" y="-254.38" font-family="Helvetica,sans-Serif" font-size="10.00">mpool_alloc</text>
</a>
</g>
</g>
<!-- Node1&#45;&gt;Node2 -->
<g id="edge1_Node000001_Node000002" class="edge">
<title>Node1&#45;&gt;Node2</title>
<g id="a_edge1_Node000001_Node000002"><a xlink:title=" ">
<path fill="none" stroke="#63b8ff" d="M105.63,-180.73C182.67,-179.95 330.85,-184.1 450,-221.25 467.27,-226.64 469.93,-231.94 486,-240.25 487.89,-241.23 489.83,-242.23 491.8,-243.23"/>
<polygon fill="#63b8ff" stroke="#63b8ff" points="489.72,-246.1 500.22,-247.53 492.9,-239.87 489.72,-246.1"/>
</a>
</g>
</g>
<!-- Node7 -->
<g id="Node000007" class="node">
<title>Node7</title>
<g id="a_Node000007"><a xlink:href="group__texpsmooth.html#ga0fc6d6710bebc66cfe62b19dc38640cf" target="_top" xlink:title="Initialize a tExpSmooth to a specified mempool.">
<polygon fill="white" stroke="#666666" points="443.25,-419.88 325.25,-419.88 325.25,-400.62 443.25,-400.62 443.25,-419.88"/>
<text xml:space="preserve" text-anchor="middle" x="384.25" y="-406.38" font-family="Helvetica,sans-Serif" font-size="10.00">tExpSmooth_initToPool</text>
</a>
</g>
</g>
<!-- Node1&#45;&gt;Node7 -->
<g id="edge6_Node000001_Node000007" class="edge">
<title>Node1&#45;&gt;Node7</title>
<g id="a_edge6_Node000001_Node000007"><a xlink:title=" ">
<path fill="none" stroke="#63b8ff" d="M56.95,-197.82C65.03,-231.7 88.98,-312.32 141.25,-353.25 190.41,-391.74 261.27,-404.93 313.61,-409.13"/>
<polygon fill="#63b8ff" stroke="#63b8ff" points="313.09,-412.6 323.31,-409.8 313.58,-405.61 313.09,-412.6"/>
</a>
</g>
</g>
<!-- Node8 -->
<g id="Node000008" class="node">
<title>Node8</title>
<g id="a_Node000008"><a xlink:href="group__tfeedbackleveler.html#gafc048dc18818e117ac4a7984b705870c" target="_top" xlink:title="Initialize a tFeedbackLeveler to a specified mempool.">
<polygon fill="white" stroke="#666666" points="282.5,-267.88 141.25,-267.88 141.25,-248.62 282.5,-248.62 282.5,-267.88"/>
<text xml:space="preserve" text-anchor="middle" x="211.88" y="-254.38" font-family="Helvetica,sans-Serif" font-size="10.00">tFeedbackLeveler_initToPool</text>
</a>
</g>
</g>
<!-- Node1&#45;&gt;Node8 -->
<g id="edge8_Node000001_Node000008" class="edge">
<title>Node1&#45;&gt;Node8</title>
<g id="a_edge8_Node000001_Node000008"><a xlink:title=" ">
<path fill="none" stroke="#63b8ff" d="M73.48,-197.75C90.6,-210.46 116.41,-228.11 141.25,-239.25 145.74,-241.27 150.5,-243.11 155.33,-244.79"/>
<polygon fill="#63b8ff" stroke="#63b8ff" points="153.92,-248.01 164.51,-247.74 156.06,-241.35 153.92,-248.01"/>
</a>
</g>
</g>
<!-- Node10 -->
<g id="Node000010" class="node">
<title>Node10</title>
<g id="a_Node000010"><a xlink:href="leaf-delay_8c.html#acdbbbcb6f451193ef4a6bd09b77783d3" target="_top" xlink:title=" ">
<polygon fill="white" stroke="#666666" points="264.5,-116.88 159.25,-116.88 159.25,-97.62 264.5,-97.62 264.5,-116.88"/>
<text xml:space="preserve" text-anchor="middle" x="211.88" y="-103.38" font-family="Helvetica,sans-Serif" font-size="10.00">tHermiteDelay_clear</text>
</a>
</g>
</g>
<!-- Node1&#45;&gt;Node10 -->
<g id="edge12_Node000001_Node000010" class="edge">
<title>Node1&#45;&gt;Node10</title>
<g id="a_edge12_Node000001_Node000010"><a xlink:title=" ">
<path fill="none" stroke="#63b8ff" d="M73.44,-166.67C90.54,-153.91 116.34,-136.22 141.25,-125.25 144.84,-123.67 148.61,-122.2 152.44,-120.85"/>
<polygon fill="#63b8ff" stroke="#63b8ff" points="153.47,-124.19 161.92,-117.79 151.33,-117.53 153.47,-124.19"/>
</a>
</g>
</g>
<!-- Node11 -->
<g id="Node000011" class="node">
<title>Node11</title>
<g id="a_Node000011"><a xlink:href="group__thermitedelay.html#ga825b1e14df1643198e767a2e6f2a659b" target="_top" xlink:title="Initialize a tHermiteDelay to a specified mempool.">
<polygon fill="white" stroke="#666666" points="275.38,-343.88 148.38,-343.88 148.38,-324.62 275.38,-324.62 275.38,-343.88"/>
<text xml:space="preserve" text-anchor="middle" x="211.88" y="-330.38" font-family="Helvetica,sans-Serif" font-size="10.00">tHermiteDelay_initToPool</text>
</a>
</g>
</g>
<!-- Node1&#45;&gt;Node11 -->
<g id="edge13_Node000001_Node000011" class="edge">
<title>Node1&#45;&gt;Node11</title>
<g id="a_edge13_Node000001_Node000011"><a xlink:title=" ">
<path fill="none" stroke="#63b8ff" d="M66.67,-197.67C83.27,-216.99 113.17,-250.78 141.25,-277.25 156.4,-291.53 174.64,-306.39 188.65,-317.35"/>
<polygon fill="#63b8ff" stroke="#63b8ff" points="186.34,-319.99 196.39,-323.34 190.62,-314.45 186.34,-319.99"/>
</a>
</g>
</g>
<!-- Node13 -->
<g id="Node000013" class="node">
<title>Node13</title>
<g id="a_Node000013"><a xlink:href="group__thighpass.html#ga1efd9559f90347c07a41e92cac1a69e4" target="_top" xlink:title="Initialize a tHighpass to a specified mempool.">
<polygon fill="white" stroke="#666666" points="266,-153.88 157.75,-153.88 157.75,-134.62 266,-134.62 266,-153.88"/>
<text xml:space="preserve" text-anchor="middle" x="211.88" y="-140.38" font-family="Helvetica,sans-Serif" font-size="10.00">tHighpass_initToPool</text>
</a>
</g>
</g>
<!-- Node1&#45;&gt;Node13 -->
<g id="edge16_Node000001_Node000013" class="edge">
<title>Node1&#45;&gt;Node13</title>
<g id="a_edge16_Node000001_Node000013"><a xlink:title=" ">
<path fill="none" stroke="#63b8ff" d="M105.55,-169.7C122.5,-165.61 141.33,-161.06 158.33,-156.95"/>
<polygon fill="#63b8ff" stroke="#63b8ff" points="158.83,-160.43 167.73,-154.68 157.18,-153.62 158.83,-160.43"/>
</a>
</g>
</g>
<!-- Node15 -->
<g id="Node000015" class="node">
<title>Node15</title>
<g id="a_Node000015"><a xlink:href="leaf-physical_8c.html#a7af7fee7a056a2797ba2fa9075ffe8c9" target="_top" xlink:title=" ">
<polygon fill="white" stroke="#666666" points="264.5,-79.5 159.25,-79.5 159.25,-49 264.5,-49 264.5,-79.5"/>
<text xml:space="preserve" text-anchor="start" x="167.25" y="-66" font-family="Helvetica,sans-Serif" font-size="10.00">tSimpleLivingString2</text>
<text xml:space="preserve" text-anchor="middle" x="211.88" y="-54.75" font-family="Helvetica,sans-Serif" font-size="10.00">_setBrightness</text>
</a>
</g>
</g>
<!-- Node1&#45;&gt;Node15 -->
<g id="edge22_Node000001_Node000015" class="edge">
<title>Node1&#45;&gt;Node15</title>
<g id="a_edge22_Node000001_Node000015"><a xlink:title=" ">
<path fill="none" stroke="#63b8ff" d="M64.3,-166.72C79.25,-146.05 108.32,-109.64 141.25,-88.25 143.64,-86.7 146.15,-85.23 148.72,-83.85"/>
<polygon fill="#63b8ff" stroke="#63b8ff" points="150.09,-87.07 157.59,-79.59 147.06,-80.76 150.09,-87.07"/>
</a>
</g>
</g>
<!-- Node17 -->
<g id="Node000017" class="node">
<title>Node17</title>
<g id="a_Node000017"><a xlink:href="leaf-physical_8c.html#a86729909a58358ff8e5946663abd0c8b" target="_top" xlink:title=" ">
<polygon fill="white" stroke="#666666" points="264.5,-30.5 159.25,-30.5 159.25,0 264.5,0 264.5,-30.5"/>
<text xml:space="preserve" text-anchor="start" x="167.25" y="-17" font-family="Helvetica,sans-Serif" font-size="10.00">tSimpleLivingString2</text>
<text xml:space="preserve" text-anchor="middle" x="211.88" y="-5.75" font-family="Helvetica,sans-Serif" font-size="10.00">_setFreq</text>
</a>
</g>
</g>
<!-- Node1&#45;&gt;Node17 -->
<g id="edge24_Node000001_Node000017" class="edge">
<title>Node1&#45;&gt;Node17</title>
<g id="a_edge24_Node000001_Node000017"><a xlink:title=" ">
<path fill="none" stroke="#63b8ff" d="M59.22,-166.63C70.36,-137.64 98.05,-75.28 141.25,-40.25 143.65,-38.31 146.2,-36.51 148.88,-34.85"/>
<polygon fill="#63b8ff" stroke="#63b8ff" points="150.49,-37.95 157.61,-30.11 147.15,-31.8 150.49,-37.95"/>
</a>
</g>
</g>
<!-- Node19 -->
<g id="Node000019" class="node">
<title>Node19</title>
<g id="a_Node000019"><a xlink:href="group__ttwozero.html#ga1a327119904fbcdb8f71f28629bb14d4" target="_top" xlink:title="Initialize a tTwoZero to a specified mempool.">
<polygon fill="white" stroke="#666666" points="264.12,-229.88 159.62,-229.88 159.62,-210.62 264.12,-210.62 264.12,-229.88"/>
<text xml:space="preserve" text-anchor="middle" x="211.88" y="-216.38" font-family="Helvetica,sans-Serif" font-size="10.00">tTwoZero_initToPool</text>
</a>
</g>
</g>
<!-- Node1&#45;&gt;Node19 -->
<g id="edge26_Node000001_Node000019" class="edge">
<title>Node1&#45;&gt;Node19</title>
<g id="a_edge26_Node000001_Node000019"><a xlink:title=" ">
<path fill="none" stroke="#63b8ff" d="M105.55,-194.8C122.5,-198.89 141.33,-203.44 158.33,-207.55"/>
<polygon fill="#63b8ff" stroke="#63b8ff" points="157.18,-210.88 167.73,-209.82 158.83,-204.07 157.18,-210.88"/>
</a>
</g>
</g>
<!-- Node3 -->
<g id="Node000003" class="node">
<title>Node3</title>
<g id="a_Node000003"><a xlink:href="leaf-mempool_8c.html#a03d72131ceaf28939aa5fd5ebd87807c" target="_top" xlink:title=" ">
<polygon fill="white" stroke="#666666" points="698,-230.88 628.75,-230.88 628.75,-211.62 698,-211.62 698,-230.88"/>
<text xml:space="preserve" text-anchor="middle" x="663.38" y="-217.38" font-family="Helvetica,sans-Serif" font-size="10.00">create_node</text>
</a>
</g>
</g>
<!-- Node2&#45;&gt;Node3 -->
<g id="edge2_Node000002_Node000003" class="edge">
<title>Node2&#45;&gt;Node3</title>
<g id="a_edge2_Node000002_Node000003"><a xlink:title=" ">
<path fill="none" stroke="#63b8ff" d="M556.76,-249.39C574.96,-244.54 597.75,-238.47 617.5,-233.2"/>
<polygon fill="#63b8ff" stroke="#63b8ff" points="618.19,-236.64 626.96,-230.69 616.39,-229.88 618.19,-236.64"/>
</a>
</g>
</g>
<!-- Node4 -->
<g id="Node000004" class="node">
<title>Node4</title>
<g id="a_Node000004"><a xlink:href="leaf-mempool_8c.html#a1cac56e9fbf416e1410563bfb49290b4" target="_top" xlink:title=" ">
<polygon fill="white" stroke="#666666" points="697.25,-193.88 629.5,-193.88 629.5,-174.62 697.25,-174.62 697.25,-193.88"/>
<text xml:space="preserve" text-anchor="middle" x="663.38" y="-180.38" font-family="Helvetica,sans-Serif" font-size="10.00">delink_node</text>
</a>
</g>
</g>
<!-- Node2&#45;&gt;Node4 -->
<g id="edge3_Node000002_Node000004" class="edge">
<title>Node2&#45;&gt;Node4</title>
<g id="a_edge3_Node000002_Node000004"><a xlink:title=" ">
<path fill="none" stroke="#63b8ff" d="M546.35,-248.13C550.71,-245.8 555.12,-243.14 559,-240.25 577.65,-226.34 575.01,-214.15 595,-202.25 602.08,-198.04 610.16,-194.79 618.21,-192.3"/>
<polygon fill="#63b8ff" stroke="#63b8ff" points="618.87,-195.74 627.6,-189.74 617.03,-188.99 618.87,-195.74"/>
</a>
</g>
</g>
<!-- Node5 -->
<g id="Node000005" class="node">
<title>Node5</title>
<g id="a_Node000005"><a xlink:href="leaf_8c.html#a389f39fbcc732ce345106b995b3a434d" target="_top" xlink:title=" ">
<polygon fill="white" stroke="#666666" points="731.75,-304.88 595,-304.88 595,-285.62 731.75,-285.62 731.75,-304.88"/>
<text xml:space="preserve" text-anchor="middle" x="663.38" y="-291.38" font-family="Helvetica,sans-Serif" font-size="10.00">LEAF_internalErrorCallback</text>
</a>
</g>
</g>
<!-- Node2&#45;&gt;Node5 -->
<g id="edge4_Node000002_Node000005" class="edge">
<title>Node2&#45;&gt;Node5</title>
<g id="a_edge4_Node000002_Node000005"><a xlink:title=" ">
<path fill="none" stroke="#63b8ff" d="M556.76,-267.11C573.72,-271.63 594.67,-277.21 613.43,-282.21"/>
<polygon fill="#63b8ff" stroke="#63b8ff" points="612.45,-285.57 623.01,-284.76 614.25,-278.81 612.45,-285.57"/>
</a>
</g>
</g>
<!-- Node6 -->
<g id="Node000006" class="node">
<title>Node6</title>
<g id="a_Node000006"><a xlink:href="leaf-mempool_8c.html#a86e9ff1e29b71d059a27641ff1b4c00e" target="_top" xlink:title=" ">
<polygon fill="white" stroke="#666666" points="697.25,-267.88 629.5,-267.88 629.5,-248.62 697.25,-248.62 697.25,-267.88"/>
<text xml:space="preserve" text-anchor="middle" x="663.38" y="-254.38" font-family="Helvetica,sans-Serif" font-size="10.00">mpool_align</text>
</a>
</g>
</g>
<!-- Node2&#45;&gt;Node6 -->
<g id="edge5_Node000002_Node000006" class="edge">
<title>Node2&#45;&gt;Node6</title>
<g id="a_edge5_Node000002_Node000006"><a xlink:title=" ">
<path fill="none" stroke="#63b8ff" d="M556.76,-258.25C575.14,-258.25 598.21,-258.25 618.1,-258.25"/>
<polygon fill="#63b8ff" stroke="#63b8ff" points="617.87,-261.75 627.87,-258.25 617.87,-254.75 617.87,-261.75"/>
</a>
</g>
</g>
<!-- Node7&#45;&gt;Node2 -->
<g id="edge7_Node000007_Node000002" class="edge">
<title>Node7&#45;&gt;Node2</title>
<g id="a_edge7_Node000007_Node000002"><a xlink:title=" ">
<path fill="none" stroke="#63b8ff" d="M426,-400.13C434.56,-396.7 443.08,-392.18 450,-386.25 484.19,-356.97 505.26,-307.07 515.02,-279"/>
<polygon fill="#63b8ff" stroke="#63b8ff" points="518.33,-280.15 518.15,-269.55 511.69,-277.95 518.33,-280.15"/>
</a>
</g>
</g>
<!-- Node8&#45;&gt;Node2 -->
<g id="edge9_Node000008_Node000002" class="edge">
<title>Node8&#45;&gt;Node2</title>
<g id="a_edge9_Node000008_Node000002"><a xlink:title=" ">
<path fill="none" stroke="#63b8ff" d="M258.91,-268.37C277.34,-271.94 298.83,-275.49 318.5,-277.25 376.71,-282.44 392.05,-284.82 450,-277.25 459.7,-275.98 469.96,-273.79 479.59,-271.33"/>
<polygon fill="#63b8ff" stroke="#63b8ff" points="480.33,-274.75 489.07,-268.76 478.5,-268 480.33,-274.75"/>
</a>
</g>
</g>
<!-- Node9 -->
<g id="Node000009" class="node">
<title>Node9</title>
<g id="a_Node000009"><a xlink:href="group__tpowerfollower.html#ga793f23016a9bc4907bd0322aa055b230" target="_top" xlink:title="Initialize a tPowerFollower to a specified mempool.">
<polygon fill="white" stroke="#666666" points="450,-267.88 318.5,-267.88 318.5,-248.62 450,-248.62 450,-267.88"/>
<text xml:space="preserve" text-anchor="middle" x="384.25" y="-254.38" font-family="Helvetica,sans-Serif" font-size="10.00">tPowerFollower_initToPool</text>
</a>
</g>
</g>
<!-- Node8&#45;&gt;Node9 -->
<g id="edge10_Node000008_Node000009" class="edge">
<title>Node8&#45;&gt;Node9</title>
<g id="a_edge10_Node000008_Node000009"><a xlink:title=" ">
<path fill="none" stroke="#63b8ff" d="M282.66,-258.25C290.66,-258.25 298.84,-258.25 306.92,-258.25"/>
<polygon fill="#63b8ff" stroke="#63b8ff" points="306.72,-261.75 316.72,-258.25 306.72,-254.75 306.72,-261.75"/>
</a>
</g>
</g>
<!-- Node9&#45;&gt;Node2 -->
<g id="edge11_Node000009_Node000002" class="edge">
<title>Node9&#45;&gt;Node2</title>
<g id="a_edge11_Node000009_Node000002"><a xlink:title=" ">
<path fill="none" stroke="#63b8ff" d="M450.18,-258.25C459.23,-258.25 468.35,-258.25 476.91,-258.25"/>
<polygon fill="#63b8ff" stroke="#63b8ff" points="476.66,-261.75 486.66,-258.25 476.66,-254.75 476.66,-261.75"/>
</a>
</g>
</g>
<!-- Node11&#45;&gt;Node2 -->
<g id="edge14_Node000011_Node000002" class="edge">
<title>Node11&#45;&gt;Node2</title>
<g id="a_edge14_Node000011_Node000002"><a xlink:title=" ">
<path fill="none" stroke="#63b8ff" d="M238.03,-344.37C283.18,-360.85 379.79,-388.28 450,-353.25 481.13,-337.72 502.26,-301.47 513.06,-278.5"/>
<polygon fill="#63b8ff" stroke="#63b8ff" points="516.18,-280.11 517.04,-269.55 509.78,-277.27 516.18,-280.11"/>
</a>
</g>
</g>
<!-- Node12 -->
<g id="Node000012" class="node">
<title>Node12</title>
<g id="a_Node000012"><a xlink:href="leaf-delay_8c.html#af44fff6261ed8f2bf73c9e76fbe9a97e" target="_top" xlink:title=" ">
<polygon fill="white" stroke="#666666" points="445.88,-343.88 322.62,-343.88 322.62,-324.62 445.88,-324.62 445.88,-343.88"/>
<text xml:space="preserve" text-anchor="middle" x="384.25" y="-330.38" font-family="Helvetica,sans-Serif" font-size="10.00">tHermiteDelay_setDelay</text>
</a>
</g>
</g>
<!-- Node11&#45;&gt;Node12 -->
<g id="edge15_Node000011_Node000012" class="edge">
<title>Node11&#45;&gt;Node12</title>
<g id="a_edge15_Node000011_Node000012"><a xlink:title=" ">
<path fill="none" stroke="#63b8ff" d="M275.83,-334.25C287.21,-334.25 299.15,-334.25 310.77,-334.25"/>
<polygon fill="#63b8ff" stroke="#63b8ff" points="310.74,-337.75 320.74,-334.25 310.74,-330.75 310.74,-337.75"/>
</a>
</g>
</g>
<!-- Node14 -->
<g id="Node000014" class="node">
<title>Node14</title>
<g id="a_Node000014"><a xlink:href="leaf-mempool_8c.html#aa39debf1310a40b850cf115751abd65e" target="_top" xlink:title=" ">
<polygon fill="white" stroke="#666666" points="559,-230.88 486,-230.88 486,-211.62 559,-211.62 559,-230.88"/>
<text xml:space="preserve" text-anchor="middle" x="522.5" y="-217.38" font-family="Helvetica,sans-Serif" font-size="10.00">mpool_calloc</text>
</a>
</g>
</g>
<!-- Node13&#45;&gt;Node14 -->
<g id="edge17_Node000013_Node000014" class="edge">
<title>Node13&#45;&gt;Node14</title>
<g id="a_edge17_Node000013_Node000014"><a xlink:title=" ">
<path fill="none" stroke="#63b8ff" d="M266.07,-141.7C315.4,-141.16 390,-145.02 450,-168.25 470.37,-176.14 490.05,-191.48 503.59,-203.63"/>
<polygon fill="#63b8ff" stroke="#63b8ff" points="501.11,-206.11 510.8,-210.37 505.88,-200.99 501.11,-206.11"/>
</a>
</g>
</g>
<!-- Node14&#45;&gt;Node3 -->
<g id="edge18_Node000014_Node000003" class="edge">
<title>Node14&#45;&gt;Node3</title>
<g id="a_edge18_Node000014_Node000003"><a xlink:title=" ">
<path fill="none" stroke="#63b8ff" d="M559.26,-221.25C576.97,-221.25 598.52,-221.25 617.34,-221.25"/>
<polygon fill="#63b8ff" stroke="#63b8ff" points="617.13,-224.75 627.13,-221.25 617.13,-217.75 617.13,-224.75"/>
</a>
</g>
</g>
<!-- Node14&#45;&gt;Node4 -->
<g id="edge19_Node000014_Node000004" class="edge">
<title>Node14&#45;&gt;Node4</title>
<g id="a_edge19_Node000014_Node000004"><a xlink:title=" ">
<path fill="none" stroke="#63b8ff" d="M559.26,-211.72C577.18,-206.95 599.05,-201.12 618.03,-196.06"/>
<polygon fill="#63b8ff" stroke="#63b8ff" points="618.89,-199.46 627.65,-193.5 617.09,-192.69 618.89,-199.46"/>
</a>
</g>
</g>
<!-- Node14&#45;&gt;Node5 -->
<g id="edge20_Node000014_Node000005" class="edge">
<title>Node14&#45;&gt;Node5</title>
<g id="a_edge20_Node000014_Node000005"><a xlink:title=" ">
<path fill="none" stroke="#63b8ff" d="M546.35,-231.37C550.71,-233.7 555.12,-236.36 559,-239.25 577.65,-253.16 575.01,-265.35 595,-277.25 597.16,-278.53 599.4,-279.73 601.72,-280.84"/>
<polygon fill="#63b8ff" stroke="#63b8ff" points="600.19,-283.99 610.77,-284.6 602.88,-277.53 600.19,-283.99"/>
</a>
</g>
</g>
<!-- Node14&#45;&gt;Node6 -->
<g id="edge21_Node000014_Node000006" class="edge">
<title>Node14&#45;&gt;Node6</title>
<g id="a_edge21_Node000014_Node000006"><a xlink:title=" ">
<path fill="none" stroke="#63b8ff" d="M559.26,-230.78C577.18,-235.55 599.05,-241.38 618.03,-246.44"/>
<polygon fill="#63b8ff" stroke="#63b8ff" points="617.09,-249.81 627.65,-249 618.89,-243.04 617.09,-249.81"/>
</a>
</g>
</g>
<!-- Node16 -->
<g id="Node000016" class="node">
<title>Node16</title>
<g id="a_Node000016"><a xlink:href="leaf-filters_8c.html#a6c0e3f2f1ea438709233799e72da1bca" target="_top" xlink:title=" ">
<polygon fill="white" stroke="#666666" points="448.12,-73.88 320.38,-73.88 320.38,-54.62 448.12,-54.62 448.12,-73.88"/>
<text xml:space="preserve" text-anchor="middle" x="384.25" y="-60.38" font-family="Helvetica,sans-Serif" font-size="10.00">tTwoZero_setCoefficients</text>
</a>
</g>
</g>
<!-- Node15&#45;&gt;Node16 -->
<g id="edge23_Node000015_Node000016" class="edge">
<title>Node15&#45;&gt;Node16</title>
<g id="a_edge23_Node000015_Node000016"><a xlink:title=" ">
<path fill="none" stroke="#63b8ff" d="M264.92,-64.25C278.8,-64.25 294.07,-64.25 308.9,-64.25"/>
<polygon fill="#63b8ff" stroke="#63b8ff" points="308.61,-67.75 318.61,-64.25 308.61,-60.75 308.61,-67.75"/>
</a>
</g>
</g>
<!-- Node18 -->
<g id="Node000018" class="node">
<title>Node18</title>
<g id="a_Node000018"><a xlink:href="leaf-envelopes_8c.html#a466b28cf3b04814007f041b2fe6e58f5" target="_top" xlink:title=" ">
<polygon fill="white" stroke="#666666" points="439.12,-24.88 329.38,-24.88 329.38,-5.63 439.12,-5.63 439.12,-24.88"/>
<text xml:space="preserve" text-anchor="middle" x="384.25" y="-11.38" font-family="Helvetica,sans-Serif" font-size="10.00">tExpSmooth_setDest</text>
</a>
</g>
</g>
<!-- Node17&#45;&gt;Node18 -->
<g id="edge25_Node000017_Node000018" class="edge">
<title>Node17&#45;&gt;Node18</title>
<g id="a_edge25_Node000017_Node000018"><a xlink:title=" ">
<path fill="none" stroke="#63b8ff" d="M264.92,-15.25C281.62,-15.25 300.33,-15.25 317.85,-15.25"/>
<polygon fill="#63b8ff" stroke="#63b8ff" points="317.65,-18.75 327.65,-15.25 317.65,-11.75 317.65,-18.75"/>
</a>
</g>
</g>
<!-- Node19&#45;&gt;Node2 -->
<g id="edge27_Node000019_Node000002" class="edge">
<title>Node19&#45;&gt;Node2</title>
<g id="a_edge27_Node000019_Node000002"><a xlink:title=" ">
<path fill="none" stroke="#63b8ff" d="M264.55,-221.72C312.81,-223.72 386.7,-228.39 450,-239.25 459.09,-240.81 468.71,-242.99 477.84,-245.32"/>
<polygon fill="#63b8ff" stroke="#63b8ff" points="476.64,-248.62 487.21,-247.81 478.44,-241.86 476.64,-248.62"/>
</a>
</g>
</g>
</g>
</svg>
