<?xml version="1.0" encoding="UTF-8" standalone="no"?>
<!DOCTYPE svg PUBLIC "-//W3C//DTD SVG 1.1//EN"
 "http://www.w3.org/Graphics/SVG/1.1/DTD/svg11.dtd">
<!-- Generated by graphviz version 13.0.1 (20250615.1724)
 -->
<!-- Title: tZeroCrossingInfo_updatePeak Pages: 1 -->
<svg width="1012pt" height="64pt"
 viewBox="0.00 0.00 1012.00 64.00" xmlns="http://www.w3.org/2000/svg" xmlns:xlink="http://www.w3.org/1999/xlink">
<g id="graph0" class="graph" transform="scale(1 1) rotate(0) translate(4 60.25)">
<title>tZeroCrossingInfo_updatePeak</title>
<!-- Node1 -->
<g id="Node000001" class="node">
<title>Node1</title>
<g id="a_Node000001"><a xlink:title=" ">
<polygon fill="#999999" stroke="#666666" points="1003.75,-37.25 852.75,-37.25 852.75,-18 1003.75,-18 1003.75,-37.25"/>
<text xml:space="preserve" text-anchor="middle" x="928.25" y="-23.75" font-family="Helvetica,sans-Serif" font-size="10.00">tZeroCrossingInfo_updatePeak</text>
</a>
</g>
</g>
<!-- Node2 -->
<g id="Node000002" class="node">
<title>Node2</title>
<g id="a_Node000002"><a xlink:href="leaf-analysis_8c.html#a2ab94fdf10199390303a85e99fda6fe8" target="_top" xlink:title=" ">
<polygon fill="white" stroke="#666666" points="816.75,-37.25 744.5,-37.25 744.5,-18 816.75,-18 816.75,-37.25"/>
<text xml:space="preserve" text-anchor="middle" x="780.62" y="-23.75" font-family="Helvetica,sans-Serif" font-size="10.00">update_state</text>
</a>
</g>
</g>
<!-- Node1&#45;&gt;Node2 -->
<g id="edge1_Node000001_Node000002" class="edge">
<title>Node1&#45;&gt;Node2</title>
<g id="a_edge1_Node000001_Node000002"><a xlink:title=" ">
<path fill="none" stroke="#63b8ff" d="M840.87,-27.62C832.57,-27.62 824.51,-27.62 817.14,-27.62"/>
<polygon fill="#63b8ff" stroke="#63b8ff" points="840.79,-31.13 850.79,-27.63 840.79,-24.13 840.79,-31.13"/>
</a>
</g>
</g>
<!-- Node3 -->
<g id="Node000003" class="node">
<title>Node3</title>
<g id="a_Node000003"><a xlink:href="leaf-analysis_8c.html#a00f60139d6bc4892a71b1171d93f3841" target="_top" xlink:title=" ">
<polygon fill="white" stroke="#666666" points="708.5,-37.25 571,-37.25 571,-18 708.5,-18 708.5,-37.25"/>
<text xml:space="preserve" text-anchor="middle" x="639.75" y="-23.75" font-family="Helvetica,sans-Serif" font-size="10.00">tZeroCrossingCollector_tick</text>
</a>
</g>
</g>
<!-- Node2&#45;&gt;Node3 -->
<g id="edge2_Node000002_Node000003" class="edge">
<title>Node2&#45;&gt;Node3</title>
<g id="a_edge2_Node000002_Node000003"><a xlink:title=" ">
<path fill="none" stroke="#63b8ff" d="M732.85,-27.62C725.1,-27.62 716.93,-27.62 708.79,-27.62"/>
<polygon fill="#63b8ff" stroke="#63b8ff" points="732.71,-31.13 742.71,-27.63 732.71,-24.13 732.71,-31.13"/>
</a>
</g>
</g>
<!-- Node4 -->
<g id="Node000004" class="node">
<title>Node4</title>
<g id="a_Node000004"><a xlink:href="leaf-analysis_8c.html#a1fe8f2738b6f8a2d7e485504fe19913d" target="_top" xlink:title=" ">
<polygon fill="white" stroke="#666666" points="535,-37.25 429.75,-37.25 429.75,-18 535,-18 535,-37.25"/>
<text xml:space="preserve" text-anchor="middle" x="482.38" y="-23.75" font-family="Helvetica,sans-Serif" font-size="10.00">tPeriodDetector_tick</text>
</a>
</g>
</g>
<!-- Node3&#45;&gt;Node4 -->
<g id="edge3_Node000003_Node000004" class="edge">
<title>Node3&#45;&gt;Node4</title>
<g id="a_edge3_Node000003_Node000004"><a xlink:title=" ">
<path fill="none" stroke="#63b8ff" d="M559.1,-27.62C550.96,-27.62 542.85,-27.62 535.12,-27.62"/>
<polygon fill="#63b8ff" stroke="#63b8ff" points="559.09,-31.13 569.09,-27.63 559.09,-24.13 559.09,-31.13"/>
</a>
</g>
</g>
<!-- Node5 -->
<g id="Node000005" class="node">
<title>Node5</title>
<g id="a_Node000005"><a xlink:href="leaf-analysis_8c.html#aa3640da08f274651551b5d3f396b6ef1" target="_top" xlink:title=" ">
<polygon fill="white" stroke="#666666" points="393.75,-37.25 293.75,-37.25 293.75,-18 393.75,-18 393.75,-37.25"/>
<text xml:space="preserve" text-anchor="middle" x="343.75" y="-23.75" font-family="Helvetica,sans-Serif" font-size="10.00">tPitchDetector_tick</text>
</a>
</g>
</g>
<!-- Node4&#45;&gt;Node5 -->
<g id="edge4_Node000004_Node000005" class="edge">
<title>Node4&#45;&gt;Node5</title>
<g id="a_edge4_Node000004_Node000005"><a xlink:title=" ">
<path fill="none" stroke="#63b8ff" d="M418.02,-27.62C409.93,-27.62 401.76,-27.62 393.95,-27.62"/>
<polygon fill="#63b8ff" stroke="#63b8ff" points="417.82,-31.13 427.82,-27.63 417.82,-24.13 417.82,-31.13"/>
</a>
</g>
</g>
<!-- Node6 -->
<g id="Node000006" class="node">
<title>Node6</title>
<g id="a_Node000006"><a xlink:href="leaf-analysis_8c.html#a92ace06d41a36083209b29833dac5de5" target="_top" xlink:title=" ">
<polygon fill="white" stroke="#666666" points="257.75,-37.25 137.5,-37.25 137.5,-18 257.75,-18 257.75,-37.25"/>
<text xml:space="preserve" text-anchor="middle" x="197.62" y="-23.75" font-family="Helvetica,sans-Serif" font-size="10.00">tDualPitchDetector_tick</text>
</a>
</g>
</g>
<!-- Node5&#45;&gt;Node6 -->
<g id="edge5_Node000005_Node000006" class="edge">
<title>Node5&#45;&gt;Node6</title>
<g id="a_edge5_Node000005_Node000006"><a xlink:title=" ">
<path fill="none" stroke="#63b8ff" d="M282.09,-27.62C274.13,-27.62 265.99,-27.62 258.06,-27.62"/>
<polygon fill="#63b8ff" stroke="#63b8ff" points="282.04,-31.13 292.04,-27.63 282.04,-24.13 282.04,-31.13"/>
</a>
</g>
</g>
<!-- Node7 -->
<g id="Node000007" class="node">
<title>Node7</title>
<g id="a_Node000007"><a xlink:href="leaf-effects_8c.html#aa601af084c7bfc4cd2409d5ebf1d015b" target="_top" xlink:title=" ">
<polygon fill="white" stroke="#666666" points="86.5,-56.25 15,-56.25 15,-37 86.5,-37 86.5,-56.25"/>
<text xml:space="preserve" text-anchor="middle" x="50.75" y="-42.75" font-family="Helvetica,sans-Serif" font-size="10.00">tRetune_tick</text>
</a>
</g>
</g>
<!-- Node6&#45;&gt;Node7 -->
<g id="edge6_Node000006_Node000007" class="edge">
<title>Node6&#45;&gt;Node7</title>
<g id="a_edge6_Node000006_Node000007"><a xlink:title=" ">
<path fill="none" stroke="#63b8ff" d="M125.9,-36.9C112.27,-38.69 98.56,-40.49 86.7,-42.04"/>
<polygon fill="#63b8ff" stroke="#63b8ff" points="126.32,-40.38 135.78,-35.6 125.41,-33.43 126.32,-40.38"/>
</a>
</g>
</g>
<!-- Node8 -->
<g id="Node000008" class="node">
<title>Node8</title>
<g id="a_Node000008"><a xlink:href="leaf-effects_8c.html#a12c7e3733237105706f1df4da90c06fc" target="_top" xlink:title=" ">
<polygon fill="white" stroke="#666666" points="101.5,-19.25 0,-19.25 0,0 101.5,0 101.5,-19.25"/>
<text xml:space="preserve" text-anchor="middle" x="50.75" y="-5.75" font-family="Helvetica,sans-Serif" font-size="10.00">tSimpleRetune_tick</text>
</a>
</g>
</g>
<!-- Node6&#45;&gt;Node8 -->
<g id="edge7_Node000006_Node000008" class="edge">
<title>Node6&#45;&gt;Node8</title>
<g id="a_edge7_Node000006_Node000008"><a xlink:title=" ">
<path fill="none" stroke="#63b8ff" d="M125.91,-18.84C117.83,-17.84 109.72,-16.83 101.98,-15.87"/>
<polygon fill="#63b8ff" stroke="#63b8ff" points="125.42,-22.31 135.78,-20.07 126.29,-15.36 125.42,-22.31"/>
</a>
</g>
</g>
</g>
</svg>
