<?xml version="1.0" encoding="UTF-8" standalone="no"?>
<!DOCTYPE svg PUBLIC "-//W3C//DTD SVG 1.1//EN"
 "http://www.w3.org/Graphics/SVG/1.1/DTD/svg11.dtd">
<!-- Generated by graphviz version 13.0.1 (20250615.1724)
 -->
<!-- Title: fastabsf Pages: 1 -->
<svg width="974pt" height="311pt"
 viewBox="0.00 0.00 974.00 311.00" xmlns="http://www.w3.org/2000/svg" xmlns:xlink="http://www.w3.org/1999/xlink">
<g id="graph0" class="graph" transform="scale(1 1) rotate(0) translate(4 307.25)">
<title>fastabsf</title>
<!-- Node1 -->
<g id="Node000001" class="node">
<title>Node1</title>
<g id="a_Node000001"><a xlink:title=" ">
<polygon fill="#999999" stroke="#666666" points="965.5,-123.25 914.25,-123.25 914.25,-104 965.5,-104 965.5,-123.25"/>
<text xml:space="preserve" text-anchor="middle" x="939.88" y="-109.75" font-family="Helvetica,sans-Serif" font-size="10.00">fastabsf</text>
</a>
</g>
</g>
<!-- Node2 -->
<g id="Node000002" class="node">
<title>Node2</title>
<g id="a_Node000002"><a xlink:href="leaf-analysis_8c.html#ada7043b875965a06d2b456d23921e649" target="_top" xlink:title=" ">
<polygon fill="white" stroke="#666666" points="847.88,-228.25 760.62,-228.25 760.62,-209 847.88,-209 847.88,-228.25"/>
<text xml:space="preserve" text-anchor="middle" x="804.25" y="-214.75" font-family="Helvetica,sans-Serif" font-size="10.00">atkdtk_envelope</text>
</a>
</g>
</g>
<!-- Node1&#45;&gt;Node2 -->
<g id="edge1_Node000001_Node000002" class="edge">
<title>Node1&#45;&gt;Node2</title>
<g id="a_edge1_Node000001_Node000002"><a xlink:title=" ">
<path fill="none" stroke="#63b8ff" d="M929.77,-133.94C919.88,-153.67 902.23,-183.02 878.25,-199.62 869.42,-205.74 858.76,-209.89 848.34,-212.7"/>
<polygon fill="#63b8ff" stroke="#63b8ff" points="932.9,-135.5 934.03,-124.97 926.58,-132.5 932.9,-135.5"/>
</a>
</g>
</g>
<!-- Node13 -->
<g id="Node000013" class="node">
<title>Node13</title>
<g id="a_Node000013"><a xlink:href="leaf-math_8c.html#a6451d8f0dd1d7d24b5f866a10ee2b1b0" target="_top" xlink:title=" ">
<polygon fill="white" stroke="#666666" points="878.25,-190.88 730.25,-190.88 730.25,-160.38 878.25,-160.38 878.25,-190.88"/>
<text xml:space="preserve" text-anchor="start" x="738.25" y="-177.38" font-family="Helvetica,sans-Serif" font-size="10.00">LEAF_generate_atodbPositive</text>
<text xml:space="preserve" text-anchor="middle" x="804.25" y="-166.12" font-family="Helvetica,sans-Serif" font-size="10.00">Clipped</text>
</a>
</g>
</g>
<!-- Node1&#45;&gt;Node13 -->
<g id="edge14_Node000001_Node000013" class="edge">
<title>Node1&#45;&gt;Node13</title>
<g id="a_edge14_Node000001_Node000013"><a xlink:title=" ">
<path fill="none" stroke="#63b8ff" d="M915.68,-130.02C904.69,-137.29 891.16,-145.56 878.25,-151.62 871.85,-154.63 864.97,-157.42 858.08,-159.95"/>
<polygon fill="#63b8ff" stroke="#63b8ff" points="917.42,-133.07 923.72,-124.55 913.49,-127.28 917.42,-133.07"/>
</a>
</g>
</g>
<!-- Node14 -->
<g id="Node000014" class="node">
<title>Node14</title>
<g id="a_Node000014"><a xlink:href="leaf-dynamics_8c.html#a1a2b568c5de5590412d5a5d64fa5a6fd" target="_top" xlink:title=" ">
<polygon fill="white" stroke="#666666" points="850.88,-142.25 757.62,-142.25 757.62,-123 850.88,-123 850.88,-142.25"/>
<text xml:space="preserve" text-anchor="middle" x="804.25" y="-128.75" font-family="Helvetica,sans-Serif" font-size="10.00">tCompressor_tick</text>
</a>
</g>
</g>
<!-- Node1&#45;&gt;Node14 -->
<g id="edge15_Node000001_Node000014" class="edge">
<title>Node1&#45;&gt;Node14</title>
<g id="a_edge15_Node000001_Node000014"><a xlink:title=" ">
<path fill="none" stroke="#63b8ff" d="M903.07,-118.72C887.17,-120.98 868.24,-123.67 851.3,-126.08"/>
<polygon fill="#63b8ff" stroke="#63b8ff" points="903.15,-122.24 912.56,-117.37 902.16,-115.31 903.15,-122.24"/>
</a>
</g>
</g>
<!-- Node15 -->
<g id="Node000015" class="node">
<title>Node15</title>
<g id="a_Node000015"><a xlink:href="leaf-dynamics_8c.html#a534db558d5bbe5560b85e86edf033187" target="_top" xlink:title=" ">
<polygon fill="white" stroke="#666666" points="872.62,-105.25 735.88,-105.25 735.88,-86 872.62,-86 872.62,-105.25"/>
<text xml:space="preserve" text-anchor="middle" x="804.25" y="-91.75" font-family="Helvetica,sans-Serif" font-size="10.00">tCompressor_tickWithTable</text>
</a>
</g>
</g>
<!-- Node1&#45;&gt;Node15 -->
<g id="edge16_Node000001_Node000015" class="edge">
<title>Node1&#45;&gt;Node15</title>
<g id="a_edge16_Node000001_Node000015"><a xlink:title=" ">
<path fill="none" stroke="#63b8ff" d="M902.95,-108.79C893.69,-107.54 883.42,-106.15 873.11,-104.77"/>
<polygon fill="#63b8ff" stroke="#63b8ff" points="902.18,-112.21 912.55,-110.08 903.11,-105.28 902.18,-112.21"/>
</a>
</g>
</g>
<!-- Node16 -->
<g id="Node000016" class="node">
<title>Node16</title>
<g id="a_Node000016"><a xlink:href="leaf-dynamics_8c.html#ada6f6894ac476919f8917796690fcfbb" target="_top" xlink:title=" ">
<polygon fill="white" stroke="#666666" points="872.62,-67.88 735.88,-67.88 735.88,-37.38 872.62,-37.38 872.62,-67.88"/>
<text xml:space="preserve" text-anchor="start" x="743.88" y="-54.38" font-family="Helvetica,sans-Serif" font-size="10.00">tCompressor_tickWithTable</text>
<text xml:space="preserve" text-anchor="middle" x="804.25" y="-43.12" font-family="Helvetica,sans-Serif" font-size="10.00">HardKnee</text>
</a>
</g>
</g>
<!-- Node1&#45;&gt;Node16 -->
<g id="edge17_Node000001_Node000016" class="edge">
<title>Node1&#45;&gt;Node16</title>
<g id="a_edge17_Node000001_Node000016"><a xlink:title=" ">
<path fill="none" stroke="#63b8ff" d="M914.85,-97.2C903.99,-90.25 890.8,-82.43 878.25,-76.62 871.83,-73.66 864.94,-70.89 858.05,-68.37"/>
<polygon fill="#63b8ff" stroke="#63b8ff" points="912.91,-100.11 923.19,-102.68 916.76,-94.26 912.91,-100.11"/>
</a>
</g>
</g>
<!-- Node17 -->
<g id="Node000017" class="node">
<title>Node17</title>
<g id="a_Node000017"><a xlink:href="leaf-physical_8c.html#ad621441e87aa83573a51cab8a22953b3" target="_top" xlink:title=" ">
<polygon fill="white" stroke="#666666" points="840,-19.25 768.5,-19.25 768.5,0 840,0 840,-19.25"/>
<text xml:space="preserve" text-anchor="middle" x="804.25" y="-5.75" font-family="Helvetica,sans-Serif" font-size="10.00">tTString_tick</text>
</a>
</g>
</g>
<!-- Node1&#45;&gt;Node17 -->
<g id="edge18_Node000001_Node000017" class="edge">
<title>Node1&#45;&gt;Node17</title>
<g id="a_edge18_Node000001_Node000017"><a xlink:title=" ">
<path fill="none" stroke="#63b8ff" d="M929.71,-93.55C919.77,-74.04 902.09,-45.04 878.25,-28.62 867.14,-20.98 853.15,-16.41 840.4,-13.68"/>
<polygon fill="#63b8ff" stroke="#63b8ff" points="926.49,-94.92 933.99,-102.4 932.79,-91.88 926.49,-94.92"/>
</a>
</g>
</g>
<!-- Node3 -->
<g id="Node000003" class="node">
<title>Node3</title>
<g id="a_Node000003"><a xlink:href="leaf-analysis_8c.html#a895d8ff65a0d774b759ee0f980cc2c93" target="_top" xlink:title=" ">
<polygon fill="white" stroke="#666666" points="694.25,-228.25 572.5,-228.25 572.5,-209 694.25,-209 694.25,-228.25"/>
<text xml:space="preserve" text-anchor="middle" x="633.38" y="-214.75" font-family="Helvetica,sans-Serif" font-size="10.00">tAttackDetection_detect</text>
</a>
</g>
</g>
<!-- Node2&#45;&gt;Node3 -->
<g id="edge2_Node000002_Node000003" class="edge">
<title>Node2&#45;&gt;Node3</title>
<g id="a_edge2_Node000002_Node000003"><a xlink:title=" ">
<path fill="none" stroke="#63b8ff" d="M749.09,-218.62C731.71,-218.62 712.34,-218.62 694.55,-218.62"/>
<polygon fill="#63b8ff" stroke="#63b8ff" points="748.69,-222.13 758.69,-218.63 748.69,-215.13 748.69,-222.13"/>
</a>
</g>
</g>
<!-- Node4 -->
<g id="Node000004" class="node">
<title>Node4</title>
<g id="a_Node000004"><a xlink:href="leaf-effects_8c.html#a9367a4f0b9c2790d04420f53862e2f88" target="_top" xlink:title=" ">
<polygon fill="white" stroke="#666666" points="536.5,-228.25 432.75,-228.25 432.75,-209 536.5,-209 536.5,-228.25"/>
<text xml:space="preserve" text-anchor="middle" x="484.62" y="-214.75" font-family="Helvetica,sans-Serif" font-size="10.00">tSOLAD_ioSamples</text>
</a>
</g>
</g>
<!-- Node3&#45;&gt;Node4 -->
<g id="edge3_Node000003_Node000004" class="edge">
<title>Node3&#45;&gt;Node4</title>
<g id="a_edge3_Node000003_Node000004"><a xlink:title=" ">
<path fill="none" stroke="#63b8ff" d="M560.9,-218.62C552.82,-218.62 544.72,-218.62 536.97,-218.62"/>
<polygon fill="#63b8ff" stroke="#63b8ff" points="560.75,-222.13 570.75,-218.63 560.75,-215.13 560.75,-222.13"/>
</a>
</g>
</g>
<!-- Node5 -->
<g id="Node000005" class="node">
<title>Node5</title>
<g id="a_Node000005"><a xlink:href="leaf-effects_8c.html#a12a9ec21c50d763e79e21370764bee1c" target="_top" xlink:title=" ">
<polygon fill="white" stroke="#666666" points="396.75,-247.25 299,-247.25 299,-228 396.75,-228 396.75,-247.25"/>
<text xml:space="preserve" text-anchor="middle" x="347.88" y="-233.75" font-family="Helvetica,sans-Serif" font-size="10.00">tPitchShift_shiftBy</text>
</a>
</g>
</g>
<!-- Node4&#45;&gt;Node5 -->
<g id="edge4_Node000004_Node000005" class="edge">
<title>Node4&#45;&gt;Node5</title>
<g id="a_edge4_Node000004_Node000005"><a xlink:title=" ">
<path fill="none" stroke="#63b8ff" d="M420.99,-227.46C412.91,-228.6 404.75,-229.75 396.96,-230.85"/>
<polygon fill="#63b8ff" stroke="#63b8ff" points="421.39,-230.94 430.8,-226.07 420.41,-224 421.39,-230.94"/>
</a>
</g>
</g>
<!-- Node12 -->
<g id="Node000012" class="node">
<title>Node12</title>
<g id="a_Node000012"><a xlink:href="leaf-effects_8c.html#ab7235d6328be9d10064bbc421b2bd510" target="_top" xlink:title=" ">
<polygon fill="white" stroke="#666666" points="396,-210.25 299.75,-210.25 299.75,-191 396,-191 396,-210.25"/>
<text xml:space="preserve" text-anchor="middle" x="347.88" y="-196.75" font-family="Helvetica,sans-Serif" font-size="10.00">tPitchShift_shiftTo</text>
</a>
</g>
</g>
<!-- Node4&#45;&gt;Node12 -->
<g id="edge11_Node000004_Node000012" class="edge">
<title>Node4&#45;&gt;Node12</title>
<g id="a_edge11_Node000004_Node000012"><a xlink:title=" ">
<path fill="none" stroke="#63b8ff" d="M420.98,-210.26C412.6,-209.14 404.13,-208.01 396.07,-206.93"/>
<polygon fill="#63b8ff" stroke="#63b8ff" points="420.42,-213.71 430.8,-211.57 421.35,-206.77 420.42,-213.71"/>
</a>
</g>
</g>
<!-- Node6 -->
<g id="Node000006" class="node">
<title>Node6</title>
<g id="a_Node000006"><a xlink:href="leaf-effects_8c.html#a6a747f6f1163b3af53a4adb1526b95c1" target="_top" xlink:title=" ">
<polygon fill="white" stroke="#666666" points="248,-303.25 149.5,-303.25 149.5,-284 248,-284 248,-303.25"/>
<text xml:space="preserve" text-anchor="middle" x="198.75" y="-289.75" font-family="Helvetica,sans-Serif" font-size="10.00">tRetune_initToPool</text>
</a>
</g>
</g>
<!-- Node5&#45;&gt;Node6 -->
<g id="edge5_Node000005_Node000006" class="edge">
<title>Node5&#45;&gt;Node6</title>
<g id="a_edge5_Node000005_Node000006"><a xlink:title=" ">
<path fill="none" stroke="#63b8ff" d="M316.68,-252.62C300.91,-260.11 281.17,-268.96 263,-275.62 255.17,-278.49 246.67,-281.19 238.51,-283.58"/>
<polygon fill="#63b8ff" stroke="#63b8ff" points="318.04,-255.85 325.52,-248.35 315,-249.54 318.04,-255.85"/>
</a>
</g>
</g>
<!-- Node8 -->
<g id="Node000008" class="node">
<title>Node8</title>
<g id="a_Node000008"><a xlink:href="leaf-effects_8c.html#acecfdf2e871894d2fbe89c6cce8413fd" target="_top" xlink:title=" ">
<polygon fill="white" stroke="#666666" points="245.38,-229.25 152.12,-229.25 152.12,-210 245.38,-210 245.38,-229.25"/>
<text xml:space="preserve" text-anchor="middle" x="198.75" y="-215.75" font-family="Helvetica,sans-Serif" font-size="10.00">tRetune_setMode</text>
</a>
</g>
</g>
<!-- Node5&#45;&gt;Node8 -->
<g id="edge7_Node000005_Node000008" class="edge">
<title>Node5&#45;&gt;Node8</title>
<g id="a_edge7_Node000005_Node000008"><a xlink:title=" ">
<path fill="none" stroke="#63b8ff" d="M287.64,-230.38C273.61,-228.66 258.86,-226.86 245.53,-225.23"/>
<polygon fill="#63b8ff" stroke="#63b8ff" points="286.85,-233.81 297.2,-231.55 287.7,-226.86 286.85,-233.81"/>
</a>
</g>
</g>
<!-- Node9 -->
<g id="Node000009" class="node">
<title>Node9</title>
<g id="a_Node000009"><a xlink:href="leaf-effects_8c.html#a9865009238e1213b489386e69b3c5bdc" target="_top" xlink:title=" ">
<polygon fill="white" stroke="#666666" points="263,-266.25 134.5,-266.25 134.5,-247 263,-247 263,-266.25"/>
<text xml:space="preserve" text-anchor="middle" x="198.75" y="-252.75" font-family="Helvetica,sans-Serif" font-size="10.00">tSimpleRetune_initToPool</text>
</a>
</g>
</g>
<!-- Node5&#45;&gt;Node9 -->
<g id="edge8_Node000005_Node000009" class="edge">
<title>Node5&#45;&gt;Node9</title>
<g id="a_edge8_Node000005_Node000009"><a xlink:title=" ">
<path fill="none" stroke="#63b8ff" d="M287.31,-245.32C279.4,-246.34 271.26,-247.39 263.29,-248.42"/>
<polygon fill="#63b8ff" stroke="#63b8ff" points="287.73,-248.79 297.2,-244.04 286.83,-241.85 287.73,-248.79"/>
</a>
</g>
</g>
<!-- Node11 -->
<g id="Node000011" class="node">
<title>Node11</title>
<g id="a_Node000011"><a xlink:href="leaf-effects_8c.html#a2bd522bc60a373483409d85e369bc1d5" target="_top" xlink:title=" ">
<polygon fill="white" stroke="#666666" points="260.38,-192.25 137.12,-192.25 137.12,-173 260.38,-173 260.38,-192.25"/>
<text xml:space="preserve" text-anchor="middle" x="198.75" y="-178.75" font-family="Helvetica,sans-Serif" font-size="10.00">tSimpleRetune_setMode</text>
</a>
</g>
</g>
<!-- Node5&#45;&gt;Node11 -->
<g id="edge10_Node000005_Node000011" class="edge">
<title>Node5&#45;&gt;Node11</title>
<g id="a_edge10_Node000005_Node000011"><a xlink:title=" ">
<path fill="none" stroke="#63b8ff" d="M307.63,-223.33C304.69,-222.12 301.79,-220.88 299,-219.62 282.5,-212.2 279.79,-207.36 263,-200.62 255.69,-197.69 247.72,-195.03 239.99,-192.71"/>
<polygon fill="#63b8ff" stroke="#63b8ff" points="306.29,-226.56 316.87,-226.99 308.86,-220.06 306.29,-226.56"/>
</a>
</g>
</g>
<!-- Node7 -->
<g id="Node000007" class="node">
<title>Node7</title>
<g id="a_Node000007"><a xlink:href="leaf-effects_8c.html#a51e8c7034f00a4d82d850fb75e75fe99" target="_top" xlink:title=" ">
<polygon fill="white" stroke="#666666" points="83.5,-303.25 15,-303.25 15,-284 83.5,-284 83.5,-303.25"/>
<text xml:space="preserve" text-anchor="middle" x="49.25" y="-289.75" font-family="Helvetica,sans-Serif" font-size="10.00">tRetune_init</text>
</a>
</g>
</g>
<!-- Node6&#45;&gt;Node7 -->
<g id="edge6_Node000006_Node000007" class="edge">
<title>Node6&#45;&gt;Node7</title>
<g id="a_edge6_Node000006_Node000007"><a xlink:title=" ">
<path fill="none" stroke="#63b8ff" d="M137.56,-293.62C119.29,-293.62 99.86,-293.62 83.99,-293.62"/>
<polygon fill="#63b8ff" stroke="#63b8ff" points="137.53,-297.13 147.53,-293.63 137.53,-290.13 137.53,-297.13"/>
</a>
</g>
</g>
<!-- Node10 -->
<g id="Node000010" class="node">
<title>Node10</title>
<g id="a_Node000010"><a xlink:href="leaf-effects_8c.html#a784c1e1a514c47322281d2c0f3a0dbfd" target="_top" xlink:title=" ">
<polygon fill="white" stroke="#666666" points="98.5,-266.25 0,-266.25 0,-247 98.5,-247 98.5,-266.25"/>
<text xml:space="preserve" text-anchor="middle" x="49.25" y="-252.75" font-family="Helvetica,sans-Serif" font-size="10.00">tSimpleRetune_init</text>
</a>
</g>
</g>
<!-- Node9&#45;&gt;Node10 -->
<g id="edge9_Node000009_Node000010" class="edge">
<title>Node9&#45;&gt;Node10</title>
<g id="a_edge9_Node000009_Node000010"><a xlink:title=" ">
<path fill="none" stroke="#63b8ff" d="M122.87,-256.62C114.73,-256.62 106.61,-256.62 98.9,-256.62"/>
<polygon fill="#63b8ff" stroke="#63b8ff" points="122.83,-260.13 132.83,-256.63 122.83,-253.13 122.83,-260.13"/>
</a>
</g>
</g>
<!-- Node12&#45;&gt;Node8 -->
<g id="edge12_Node000012_Node000008" class="edge">
<title>Node12&#45;&gt;Node8</title>
<g id="a_edge12_Node000012_Node000008"><a xlink:title=" ">
<path fill="none" stroke="#63b8ff" d="M288.36,-208.18C274.2,-210.01 259.26,-211.94 245.77,-213.68"/>
<polygon fill="#63b8ff" stroke="#63b8ff" points="288.54,-211.69 298.01,-206.94 287.65,-204.74 288.54,-211.69"/>
</a>
</g>
</g>
<!-- Node12&#45;&gt;Node11 -->
<g id="edge13_Node000012_Node000011" class="edge">
<title>Node12&#45;&gt;Node11</title>
<g id="a_edge13_Node000012_Node000011"><a xlink:title=" ">
<path fill="none" stroke="#63b8ff" d="M288.26,-193.45C279.21,-192.35 269.84,-191.2 260.74,-190.09"/>
<polygon fill="#63b8ff" stroke="#63b8ff" points="287.66,-196.91 298.01,-194.65 288.51,-189.96 287.66,-196.91"/>
</a>
</g>
</g>
</g>
</svg>
