<?xml version="1.0" encoding="UTF-8" standalone="no"?>
<!DOCTYPE svg PUBLIC "-//W3C//DTD SVG 1.1//EN"
 "http://www.w3.org/Graphics/SVG/1.1/DTD/svg11.dtd">
<!-- Generated by graphviz version 13.0.1 (20250615.1724)
 -->
<!-- Title: wrightOmegaApproximation Pages: 1 -->
<svg width="683pt" height="88pt"
 viewBox="0.00 0.00 683.00 88.00" xmlns="http://www.w3.org/2000/svg" xmlns:xlink="http://www.w3.org/1999/xlink">
<g id="graph0" class="graph" transform="scale(1 1) rotate(0) translate(4 83.5)">
<title>wrightOmegaApproximation</title>
<!-- Node1 -->
<g id="Node000001" class="node">
<title>Node1</title>
<g id="a_Node000001"><a xlink:title=" ">
<polygon fill="#999999" stroke="#666666" points="675,-48.88 539,-48.88 539,-29.62 675,-29.62 675,-48.88"/>
<text xml:space="preserve" text-anchor="middle" x="607" y="-35.38" font-family="Helvetica,sans-Serif" font-size="10.00">wrightOmegaApproximation</text>
</a>
</g>
</g>
<!-- Node2 -->
<g id="Node000002" class="node">
<title>Node2</title>
<g id="a_Node000002"><a xlink:href="leaf-electrical_8c.html#a729d2073642d241547c291f5b5ca122c" target="_top" xlink:title=" ">
<polygon fill="white" stroke="#666666" points="503,-48.88 445,-48.88 445,-29.62 503,-29.62 503,-48.88"/>
<text xml:space="preserve" text-anchor="middle" x="474" y="-35.38" font-family="Helvetica,sans-Serif" font-size="10.00">lambertW</text>
</a>
</g>
</g>
<!-- Node1&#45;&gt;Node2 -->
<g id="edge1_Node000001_Node000002" class="edge">
<title>Node1&#45;&gt;Node2</title>
<g id="a_edge1_Node000001_Node000002"><a xlink:title=" ">
<path fill="none" stroke="#63b8ff" d="M527.31,-39.25C518.83,-39.25 510.67,-39.25 503.4,-39.25"/>
<polygon fill="#63b8ff" stroke="#63b8ff" points="527.07,-42.75 537.07,-39.25 527.07,-35.75 527.07,-42.75"/>
</a>
</g>
</g>
<!-- Node3 -->
<g id="Node000003" class="node">
<title>Node3</title>
<g id="a_Node000003"><a xlink:href="leaf-electrical_8c.html#affe007d78ad5466270015d87501c8b7a" target="_top" xlink:title=" ">
<polygon fill="white" stroke="#666666" points="409,-79.5 308.25,-79.5 308.25,-49 409,-49 409,-79.5"/>
<text xml:space="preserve" text-anchor="start" x="316.25" y="-66" font-family="Helvetica,sans-Serif" font-size="10.00">get_reflected_wave</text>
<text xml:space="preserve" text-anchor="middle" x="358.62" y="-54.75" font-family="Helvetica,sans-Serif" font-size="10.00">_for_diode</text>
</a>
</g>
</g>
<!-- Node2&#45;&gt;Node3 -->
<g id="edge2_Node000002_Node000003" class="edge">
<title>Node2&#45;&gt;Node3</title>
<g id="a_edge2_Node000002_Node000003"><a xlink:title=" ">
<path fill="none" stroke="#63b8ff" d="M433.58,-47.94C425.71,-49.68 417.35,-51.52 409.19,-53.32"/>
<polygon fill="#63b8ff" stroke="#63b8ff" points="434.19,-51.39 443.21,-45.82 432.69,-44.56 434.19,-51.39"/>
</a>
</g>
</g>
<!-- Node7 -->
<g id="Node000007" class="node">
<title>Node7</title>
<g id="a_Node000007"><a xlink:href="leaf-electrical_8c.html#aee6114c803a8351e5727446e25f7c78d" target="_top" xlink:title=" ">
<polygon fill="white" stroke="#666666" points="409,-30.5 308.25,-30.5 308.25,0 409,0 409,-30.5"/>
<text xml:space="preserve" text-anchor="start" x="316.25" y="-17" font-family="Helvetica,sans-Serif" font-size="10.00">get_reflected_wave</text>
<text xml:space="preserve" text-anchor="middle" x="358.62" y="-5.75" font-family="Helvetica,sans-Serif" font-size="10.00">_for_diode_pair</text>
</a>
</g>
</g>
<!-- Node2&#45;&gt;Node7 -->
<g id="edge6_Node000002_Node000007" class="edge">
<title>Node2&#45;&gt;Node7</title>
<g id="a_edge6_Node000002_Node000007"><a xlink:title=" ">
<path fill="none" stroke="#63b8ff" d="M433.58,-30.91C425.71,-29.24 417.35,-27.47 409.19,-25.74"/>
<polygon fill="#63b8ff" stroke="#63b8ff" points="432.69,-34.3 443.2,-32.94 434.14,-27.45 432.69,-34.3"/>
</a>
</g>
</g>
<!-- Node4 -->
<g id="Node000004" class="node">
<title>Node4</title>
<g id="a_Node000004"><a xlink:href="leaf-electrical_8c.html#a1c42e075ca784ef25bf59e8bbfc81618" target="_top" xlink:title=" ">
<polygon fill="white" stroke="#666666" points="272.25,-48.88 222.5,-48.88 222.5,-29.62 272.25,-29.62 272.25,-48.88"/>
<text xml:space="preserve" text-anchor="middle" x="247.38" y="-35.38" font-family="Helvetica,sans-Serif" font-size="10.00">wdf_init</text>
</a>
</g>
</g>
<!-- Node3&#45;&gt;Node4 -->
<g id="edge3_Node000003_Node000004" class="edge">
<title>Node3&#45;&gt;Node4</title>
<g id="a_edge3_Node000003_Node000004"><a xlink:title=" ">
<path fill="none" stroke="#63b8ff" d="M296.85,-50.34C288.24,-48.37 279.84,-46.45 272.52,-44.77"/>
<polygon fill="#63b8ff" stroke="#63b8ff" points="295.79,-53.69 306.32,-52.51 297.35,-46.87 295.79,-53.69"/>
</a>
</g>
</g>
<!-- Node5 -->
<g id="Node000005" class="node">
<title>Node5</title>
<g id="a_Node000005"><a xlink:href="group__twdf.html#ga56db3e9eb7db14bb9bb47a2fdd8f9e03" target="_top" xlink:title="Initialize a tWDF to a specified mempool.">
<polygon fill="white" stroke="#666666" points="186.5,-48.88 96.25,-48.88 96.25,-29.62 186.5,-29.62 186.5,-48.88"/>
<text xml:space="preserve" text-anchor="middle" x="141.38" y="-35.38" font-family="Helvetica,sans-Serif" font-size="10.00">tWDF_initToPool</text>
</a>
</g>
</g>
<!-- Node4&#45;&gt;Node5 -->
<g id="edge4_Node000004_Node000005" class="edge">
<title>Node4&#45;&gt;Node5</title>
<g id="a_edge4_Node000004_Node000005"><a xlink:title=" ">
<path fill="none" stroke="#63b8ff" d="M210.98,-39.25C203.2,-39.25 194.86,-39.25 186.78,-39.25"/>
<polygon fill="#63b8ff" stroke="#63b8ff" points="210.74,-42.75 220.74,-39.25 210.74,-35.75 210.74,-42.75"/>
</a>
</g>
</g>
<!-- Node6 -->
<g id="Node000006" class="node">
<title>Node6</title>
<g id="a_Node000006"><a xlink:href="group__twdf.html#ga8d1df9f37020a71ffd7e163045259bc8" target="_top" xlink:title="Initialize a tWDF to the default mempool of a LEAF instance.">
<polygon fill="white" stroke="#666666" points="60.25,-48.88 0,-48.88 0,-29.62 60.25,-29.62 60.25,-48.88"/>
<text xml:space="preserve" text-anchor="middle" x="30.12" y="-35.38" font-family="Helvetica,sans-Serif" font-size="10.00">tWDF_init</text>
</a>
</g>
</g>
<!-- Node5&#45;&gt;Node6 -->
<g id="edge5_Node000005_Node000006" class="edge">
<title>Node5&#45;&gt;Node6</title>
<g id="a_edge5_Node000005_Node000006"><a xlink:title=" ">
<path fill="none" stroke="#63b8ff" d="M84.63,-39.25C76.29,-39.25 68,-39.25 60.51,-39.25"/>
<polygon fill="#63b8ff" stroke="#63b8ff" points="84.43,-42.75 94.43,-39.25 84.43,-35.75 84.43,-42.75"/>
</a>
</g>
</g>
<!-- Node7&#45;&gt;Node4 -->
<g id="edge7_Node000007_Node000004" class="edge">
<title>Node7&#45;&gt;Node4</title>
<g id="a_edge7_Node000007_Node000004"><a xlink:title=" ">
<path fill="none" stroke="#63b8ff" d="M296.56,-28.66C288.06,-30.53 279.76,-32.36 272.52,-33.95"/>
<polygon fill="#63b8ff" stroke="#63b8ff" points="297.3,-32.09 306.32,-26.52 295.8,-25.25 297.3,-32.09"/>
</a>
</g>
</g>
</g>
</svg>
