<?xml version="1.0" encoding="UTF-8" standalone="no"?>
<!DOCTYPE svg PUBLIC "-//W3C//DTD SVG 1.1//EN"
 "http://www.w3.org/Graphics/SVG/1.1/DTD/svg11.dtd">
<!-- Generated by graphviz version 13.0.1 (20250615.1724)
 -->
<!-- Title: tPoly_tickPitch Pages: 1 -->
<svg width="333pt" height="64pt"
 viewBox="0.00 0.00 333.00 64.00" xmlns="http://www.w3.org/2000/svg" xmlns:xlink="http://www.w3.org/1999/xlink">

<svg id="main" version="1.1" xmlns="http://www.w3.org/2000/svg" xmlns:xlink="http://www.w3.org/1999/xlink" xml:space="preserve">

<style type="text/css"><![CDATA[
.node, .edge {opacity: 0.7;}
.node.selected, .edge.selected {opacity: 1;}
.edge:hover path { stroke: red; }
.edge:hover polygon { stroke: red; fill: red; }
]]></style>
<script type="application/ecmascript" xlink:href="svg.min.js"/>
<svg id="graph" class="graph">
<g id="graph0" class="graph" transform="scale(1 1) rotate(0) translate(4 60.25)">
<title>tPoly_tickPitch</title>
<!-- Node1 -->
<g id="Node000001" class="node">
<title>Node1</title>
<g id="a_Node000001"><a xlink:title=" ">
<polygon fill="#999999" stroke="#666666" points="82,-37.25 0,-37.25 0,-18 82,-18 82,-37.25"/>
<text xml:space="preserve" text-anchor="middle" x="41" y="-23.75" font-family="Helvetica,sans-Serif" font-size="10.00">tPoly_tickPitch</text>
</a>
</g>
</g>
<!-- Node2 -->
<g id="Node000002" class="node">
<title>Node2</title>
<g id="a_Node000002"><a xlink:href="leaf-midi_8c.html#ae59dc1ca86c880b379339d7dc031d50e" target="_top" xlink:title=" ">
<polygon fill="white" stroke="#666666" points="222.5,-56.25 118,-56.25 118,-37 222.5,-37 222.5,-56.25"/>
<text xml:space="preserve" text-anchor="middle" x="170.25" y="-42.75" font-family="Helvetica,sans-Serif" font-size="10.00">tPoly_tickPitchBend</text>
</a>
</g>
</g>
<!-- Node1&#45;&gt;Node2 -->
<g id="edge1_Node000001_Node000002" class="edge">
<title>Node1&#45;&gt;Node2</title>
<g id="a_edge1_Node000001_Node000002"><a xlink:title=" ">
<path fill="none" stroke="#63b8ff" d="M82.26,-33.64C89.97,-34.79 98.21,-36.02 106.43,-37.25"/>
<polygon fill="#63b8ff" stroke="#63b8ff" points="105.68,-40.67 116.09,-38.69 106.71,-33.75 105.68,-40.67"/>
</a>
</g>
</g>
<!-- Node4 -->
<g id="Node000004" class="node">
<title>Node4</title>
<g id="a_Node000004"><a xlink:href="leaf-midi_8c.html#a75425542c5583f833245ab5597a251b8" target="_top" xlink:title=" ">
<polygon fill="white" stroke="#666666" points="222.5,-19.25 118,-19.25 118,0 222.5,0 222.5,-19.25"/>
<text xml:space="preserve" text-anchor="middle" x="170.25" y="-5.75" font-family="Helvetica,sans-Serif" font-size="10.00">tPoly_tickPitchGlide</text>
</a>
</g>
</g>
<!-- Node1&#45;&gt;Node4 -->
<g id="edge3_Node000001_Node000004" class="edge">
<title>Node1&#45;&gt;Node4</title>
<g id="a_edge3_Node000001_Node000004"><a xlink:title=" ">
<path fill="none" stroke="#63b8ff" d="M82.26,-21.93C89.97,-20.84 98.21,-19.67 106.43,-18.51"/>
<polygon fill="#63b8ff" stroke="#63b8ff" points="106.67,-22.01 116.09,-17.15 105.69,-15.08 106.67,-22.01"/>
</a>
</g>
</g>
<!-- Node3 -->
<g id="Node000003" class="node">
<title>Node3</title>
<g id="a_Node000003"><a xlink:href="leaf-envelopes_8c.html#a9d1841741c60dc4266c73076b7204049" target="_top" xlink:title=" ">
<polygon fill="white" stroke="#666666" points="324.75,-37.25 258.5,-37.25 258.5,-18 324.75,-18 324.75,-37.25"/>
<text xml:space="preserve" text-anchor="middle" x="291.62" y="-23.75" font-family="Helvetica,sans-Serif" font-size="10.00">tRamp_tick</text>
</a>
</g>
</g>
<!-- Node2&#45;&gt;Node3 -->
<g id="edge2_Node000002_Node000003" class="edge">
<title>Node2&#45;&gt;Node3</title>
<g id="a_edge2_Node000002_Node000003"><a xlink:title=" ">
<path fill="none" stroke="#63b8ff" d="M222.92,-38.4C230.96,-37.12 239.2,-35.81 247.04,-34.56"/>
<polygon fill="#63b8ff" stroke="#63b8ff" points="247.35,-38.06 256.68,-33.03 246.25,-31.14 247.35,-38.06"/>
</a>
</g>
</g>
<!-- Node4&#45;&gt;Node3 -->
<g id="edge4_Node000004_Node000003" class="edge">
<title>Node4&#45;&gt;Node3</title>
<g id="a_edge4_Node000004_Node000003"><a xlink:title=" ">
<path fill="none" stroke="#63b8ff" d="M222.92,-17.42C230.96,-18.63 239.2,-19.87 247.04,-21.05"/>
<polygon fill="#63b8ff" stroke="#63b8ff" points="246.27,-24.48 256.68,-22.51 247.31,-17.55 246.27,-24.48"/>
</a>
</g>
</g>
</g>
</svg>
</svg>

<style type='text/css'>
<![CDATA[
[data-mouse-over-selected='false'] { opacity: 0.7; }
[data-mouse-over-selected='true']  { opacity: 1.0; }
]]>
</style>
<script type="application/ecmascript"><![CDATA[
document.addEventListener('DOMContentLoaded', (event) => {
  highlightEdges();
  highlightAdjacentNodes();
});
]]></script>
</svg>
