<?xml version="1.0" encoding="UTF-8" standalone="no"?>
<!DOCTYPE svg PUBLIC "-//W3C//DTD SVG 1.1//EN"
 "http://www.w3.org/Graphics/SVG/1.1/DTD/svg11.dtd">
<!-- Generated by graphviz version 13.0.1 (20250615.1724)
 -->
<!-- Title: _tPBSawSquare Pages: 1 -->
<svg width="361pt" height="302pt"
 viewBox="0.00 0.00 361.00 302.00" xmlns="http://www.w3.org/2000/svg" xmlns:xlink="http://www.w3.org/1999/xlink">
<g id="graph0" class="graph" transform="scale(1 1) rotate(0) translate(4 297.75)">
<title>_tPBSawSquare</title>
<!-- Node1 -->
<g id="Node000001" class="node">
<title>Node1</title>
<g id="a_Node000001"><a xlink:title=" ">
<polygon fill="#999999" stroke="none" points="80,-128.88 0,-128.88 0,-109.62 80,-109.62 80,-128.88"/>
<text xml:space="preserve" text-anchor="start" x="4" y="-115.38" font-family="Helvetica,sans-Serif" font-size="10.00">_tPBSawSquare</text>
<polygon fill="none" stroke="#666666" points="0,-109.62 0,-128.88 80,-128.88 80,-109.62 0,-109.62"/>
</a>
</g>
</g>
<!-- Node2 -->
<g id="Node000002" class="node">
<title>Node2</title>
<g id="a_Node000002"><a xlink:href="struct__t_mempool.html" target="_top" xlink:title=" ">
<polygon fill="white" stroke="none" points="189,-208 133,-208 133,-188.75 189,-188.75 189,-208"/>
<text xml:space="preserve" text-anchor="start" x="137" y="-194.5" font-family="Helvetica,sans-Serif" font-size="10.00">_tMempool</text>
<polygon fill="none" stroke="#666666" points="133,-188.75 133,-208 189,-208 189,-188.75 133,-188.75"/>
</a>
</g>
</g>
<!-- Node2&#45;&gt;Node1 -->
<g id="edge1_Node000001_Node000002" class="edge">
<title>Node2&#45;&gt;Node1</title>
<g id="a_edge1_Node000001_Node000002"><a xlink:title=" ">
<path fill="none" stroke="#63b8ff" d="M133.26,-194.12C104.31,-190.16 61.58,-182.49 50.25,-170.75 42.82,-163.05 40.09,-151.52 39.3,-141.42"/>
<polygon fill="none" stroke="#63b8ff" points="39.3,-141.54 35.24,-135.58 39.18,-129.54 43.24,-135.5 39.3,-141.54"/>
</a>
</g>
<text xml:space="preserve" text-anchor="start" x="53.25" y="-158.25" font-family="Helvetica,sans-Serif" font-size="10.00" fill="grey">+mempool</text>
</g>
<!-- Node2&#45;&gt;Node2 -->
<g id="edge2_Node000002_Node000002" class="edge">
<title>Node2&#45;&gt;Node2</title>
<g id="a_edge2_Node000002_Node000002"><a xlink:title=" ">
<path fill="none" stroke="#63b8ff" d="M188.85,-205.17C198.85,-205.31 207,-203.05 207,-198.38 207,-196.04 204.96,-194.3 201.67,-193.17"/>
<polygon fill="none" stroke="#63b8ff" points="201.65,-193.17 195.2,-196.4 189.74,-191.7 196.19,-188.46 201.65,-193.17"/>
</a>
</g>
<text xml:space="preserve" text-anchor="start" x="210" y="-194.5" font-family="Helvetica,sans-Serif" font-size="10.00" fill="grey">+mempool</text>
</g>
<!-- Node3 -->
<g id="Node000003" class="node">
<title>Node3</title>
<g id="a_Node000003"><a xlink:href="struct_l_e_a_f.html" target="_top" xlink:title="Struct for an instance of LEAF.">
<polygon fill="white" stroke="none" points="263.38,-19.25 230.62,-19.25 230.62,0 263.38,0 263.38,-19.25"/>
<text xml:space="preserve" text-anchor="start" x="234.62" y="-5.75" font-family="Helvetica,sans-Serif" font-size="10.00">LEAF</text>
<polygon fill="none" stroke="#666666" points="230.62,0 230.62,-19.25 263.38,-19.25 263.38,0 230.62,0"/>
</a>
</g>
</g>
<!-- Node2&#45;&gt;Node3 -->
<g id="edge4_Node000003_Node000002" class="edge">
<title>Node2&#45;&gt;Node3</title>
<g id="a_edge4_Node000003_Node000002"><a xlink:title=" ">
<path fill="none" stroke="#63b8ff" d="M153.07,-188.81C138.46,-171.94 110.13,-133.44 125.25,-103 144.76,-63.7 189.87,-36.63 219.37,-22.38"/>
<polygon fill="none" stroke="#63b8ff" points="219.21,-22.46 222.99,-16.31 230.11,-17.44 226.33,-23.58 219.21,-22.46"/>
</a>
</g>
<text xml:space="preserve" text-anchor="start" x="128.25" y="-123" font-family="Helvetica,sans-Serif" font-size="10.00" fill="grey">+_internal_mempool</text>
<text xml:space="preserve" text-anchor="start" x="128.25" y="-107.75" font-family="Helvetica,sans-Serif" font-size="10.00" fill="grey">+mempool</text>
</g>
<!-- Node4 -->
<g id="Node000004" class="node">
<title>Node4</title>
<g id="a_Node000004"><a xlink:href="struct__t_lookup_table.html" target="_top" xlink:title=" ">
<polygon fill="white" stroke="none" points="298.5,-128.88 227.5,-128.88 227.5,-109.62 298.5,-109.62 298.5,-128.88"/>
<text xml:space="preserve" text-anchor="start" x="231.5" y="-115.38" font-family="Helvetica,sans-Serif" font-size="10.00">_tLookupTable</text>
<polygon fill="none" stroke="#666666" points="227.5,-109.62 227.5,-128.88 298.5,-128.88 298.5,-109.62 227.5,-109.62"/>
</a>
</g>
</g>
<!-- Node2&#45;&gt;Node4 -->
<g id="edge6_Node000004_Node000002" class="edge">
<title>Node2&#45;&gt;Node4</title>
<g id="a_edge6_Node000004_Node000002"><a xlink:title=" ">
<path fill="none" stroke="#63b8ff" d="M172.31,-188.83C188.93,-176.26 220.26,-152.56 241.39,-136.59"/>
<polygon fill="none" stroke="#63b8ff" points="241.35,-136.62 243.73,-129.81 250.92,-129.38 248.55,-136.19 241.35,-136.62"/>
</a>
</g>
<text xml:space="preserve" text-anchor="start" x="221.11" y="-158.25" font-family="Helvetica,sans-Serif" font-size="10.00" fill="grey">+mempool</text>
</g>
<!-- Node3&#45;&gt;Node2 -->
<g id="edge3_Node000002_Node000003" class="edge">
<title>Node3&#45;&gt;Node2</title>
<g id="a_edge3_Node000002_Node000003"><a xlink:title=" ">
<path fill="none" stroke="#63b8ff" d="M263.17,-11.31C280.72,-13.02 307.97,-18.71 321,-37.25 346.33,-73.28 329.49,-97.05 308,-135.5 297.38,-154.5 292.92,-159.98 274,-170.75 251.85,-183.36 224,-190.01 201.5,-193.51"/>
<polygon fill="none" stroke="#63b8ff" points="201.4,-193.52 195.99,-198.3 189.51,-195.14 194.91,-190.37 201.4,-193.52"/>
</a>
</g>
<text xml:space="preserve" text-anchor="start" x="328.58" y="-115.38" font-family="Helvetica,sans-Serif" font-size="10.00" fill="grey">+leaf</text>
</g>
<!-- Node4&#45;&gt;Node3 -->
<g id="edge5_Node000003_Node000004" class="edge">
<title>Node4&#45;&gt;Node3</title>
<g id="a_edge5_Node000003_Node000004"><a xlink:title=" ">
<path fill="none" stroke="#63b8ff" d="M258.13,-109.83C254.63,-103.29 250.21,-93.88 248.25,-85 244.37,-67.41 244.35,-46.9 245.13,-31.88"/>
<polygon fill="none" stroke="#63b8ff" points="245.13,-31.87 241.58,-25.6 246,-19.9 249.56,-26.18 245.13,-31.87"/>
</a>
</g>
<text xml:space="preserve" text-anchor="start" x="251.25" y="-72.5" font-family="Helvetica,sans-Serif" font-size="10.00" fill="grey">+envTimeTable</text>
<text xml:space="preserve" text-anchor="start" x="251.25" y="-57.25" font-family="Helvetica,sans-Serif" font-size="10.00" fill="grey">+lfoRateTable</text>
<text xml:space="preserve" text-anchor="start" x="251.25" y="-42" font-family="Helvetica,sans-Serif" font-size="10.00" fill="grey">+resTable</text>
</g>
<!-- Node5 -->
<g id="Node000005" class="node">
<title>Node5</title>
<g id="a_Node000005"><a xlink:href="structmpool__node__t.html" target="_top" xlink:title=" ">
<polygon fill="white" stroke="none" points="195.38,-287.12 126.62,-287.12 126.62,-267.88 195.38,-267.88 195.38,-287.12"/>
<text xml:space="preserve" text-anchor="start" x="130.62" y="-273.62" font-family="Helvetica,sans-Serif" font-size="10.00">mpool_node_t</text>
<polygon fill="none" stroke="#666666" points="126.62,-267.88 126.62,-287.12 195.38,-287.12 195.38,-267.88 126.62,-267.88"/>
</a>
</g>
</g>
<!-- Node5&#45;&gt;Node2 -->
<g id="edge7_Node000002_Node000005" class="edge">
<title>Node5&#45;&gt;Node2</title>
<g id="a_edge7_Node000002_Node000005"><a xlink:title=" ">
<path fill="none" stroke="#63b8ff" d="M161,-267.95C161,-256.54 161,-235.96 161,-220.31"/>
<polygon fill="none" stroke="#63b8ff" points="161,-220.63 157,-214.63 161,-208.63 165,-214.63 161,-220.63"/>
</a>
</g>
<text xml:space="preserve" text-anchor="start" x="164" y="-230.75" font-family="Helvetica,sans-Serif" font-size="10.00" fill="grey">+head</text>
</g>
<!-- Node5&#45;&gt;Node5 -->
<g id="edge8_Node000005_Node000005" class="edge">
<title>Node5&#45;&gt;Node5</title>
<g id="a_edge8_Node000005_Node000005"><a xlink:title=" ">
<path fill="none" stroke="#63b8ff" d="M195.25,-285.52C205.45,-285.28 213.38,-282.61 213.38,-277.5 213.38,-274.87 211.27,-272.88 207.83,-271.54"/>
<polygon fill="none" stroke="#63b8ff" points="207.99,-271.57 201.42,-274.54 196.14,-269.62 202.71,-266.65 207.99,-271.57"/>
</a>
</g>
<text xml:space="preserve" text-anchor="start" x="216.38" y="-281.25" font-family="Helvetica,sans-Serif" font-size="10.00" fill="grey">+next</text>
<text xml:space="preserve" text-anchor="start" x="216.38" y="-266" font-family="Helvetica,sans-Serif" font-size="10.00" fill="grey">+prev</text>
</g>
</g>
</svg>
