<?xml version="1.0" encoding="UTF-8" standalone="no"?>
<!DOCTYPE svg PUBLIC "-//W3C//DTD SVG 1.1//EN"
 "http://www.w3.org/Graphics/SVG/1.1/DTD/svg11.dtd">
<!-- Generated by graphviz version 13.0.1 (20250615.1724)
 -->
<!-- Title: detail::is_compatible_type_impl&lt; BasicJsonType, CompatibleType, enable_if_t&lt; is_complete_type&lt; CompatibleType &gt;::value &gt; &gt; Pages: 1 -->
<svg width="306pt" height="254pt"
 viewBox="0.00 0.00 306.00 254.00" xmlns="http://www.w3.org/2000/svg" xmlns:xlink="http://www.w3.org/1999/xlink">
<g id="graph0" class="graph" transform="scale(1 1) rotate(0) translate(4 250)">
<title>detail::is_compatible_type_impl&lt; BasicJsonType, CompatibleType, enable_if_t&lt; is_complete_type&lt; CompatibleType &gt;::value &gt; &gt;</title>
<!-- Node1 -->
<g id="Node000001" class="node">
<title>Node1</title>
<g id="a_Node000001"><a xlink:title=" ">
<polygon fill="#999999" stroke="none" points="137.75,-64.25 0,-64.25 0,0 137.75,0 137.75,-64.25"/>
<text xml:space="preserve" text-anchor="start" x="4" y="-50.75" font-family="Helvetica,sans-Serif" font-size="10.00">detail::is_compatible</text>
<text xml:space="preserve" text-anchor="start" x="4" y="-39.5" font-family="Helvetica,sans-Serif" font-size="10.00">_type_impl&lt; BasicJsonType,</text>
<text xml:space="preserve" text-anchor="start" x="4" y="-28.25" font-family="Helvetica,sans-Serif" font-size="10.00"> CompatibleType, enable</text>
<text xml:space="preserve" text-anchor="start" x="4" y="-17" font-family="Helvetica,sans-Serif" font-size="10.00">_if_t&lt; is_complete_type&lt;</text>
<text xml:space="preserve" text-anchor="start" x="4" y="-5.75" font-family="Helvetica,sans-Serif" font-size="10.00"> CompatibleType &gt;::value &gt; &gt;</text>
<polygon fill="none" stroke="#666666" points="0,0 0,-64.25 137.75,-64.25 137.75,0 0,0"/>
</a>
</g>
</g>
<!-- Node2 -->
<g id="Node000002" class="node">
<title>Node2</title>
<g id="a_Node000002"><a xlink:title=" ">
<polygon fill="white" stroke="none" points="101.12,-246 28.62,-246 28.62,-226.75 101.12,-226.75 101.12,-246"/>
<text xml:space="preserve" text-anchor="start" x="32.62" y="-232.5" font-family="Helvetica,sans-Serif" font-size="10.00">std::false_type</text>
<polygon fill="none" stroke="#666666" points="28.62,-226.75 28.62,-246 101.12,-246 101.12,-226.75 28.62,-226.75"/>
</a>
</g>
</g>
<!-- Node2&#45;&gt;Node1 -->
<g id="edge1_Node000001_Node000002" class="edge">
<title>Node2&#45;&gt;Node1</title>
<g id="a_edge1_Node000001_Node000002"><a xlink:title=" ">
<path fill="none" stroke="#63b8ff" d="M65.26,-215.75C65.96,-180.5 67.43,-106.25 68.26,-64.09"/>
<polygon fill="none" stroke="#63b8ff" points="61.77,-215.62 65.07,-225.68 68.76,-215.75 61.77,-215.62"/>
</a>
</g>
</g>
<!-- Node3 -->
<g id="Node000003" class="node">
<title>Node3</title>
<g id="a_Node000003"><a xlink:href="structdetail_1_1is__compatible__type__impl.html" target="_top" xlink:title=" ">
<polygon fill="white" stroke="none" points="220.5,-189.75 81.25,-189.75 81.25,-148 220.5,-148 220.5,-189.75"/>
<text xml:space="preserve" text-anchor="start" x="85.25" y="-176.25" font-family="Helvetica,sans-Serif" font-size="10.00">detail::is_compatible</text>
<text xml:space="preserve" text-anchor="start" x="85.25" y="-165" font-family="Helvetica,sans-Serif" font-size="10.00">_type_impl&lt; BasicJsonType,</text>
<text xml:space="preserve" text-anchor="start" x="85.25" y="-153.75" font-family="Helvetica,sans-Serif" font-size="10.00"> CompatibleType, typename &gt;</text>
<polygon fill="none" stroke="#666666" points="81.25,-148 81.25,-189.75 220.5,-189.75 220.5,-148 81.25,-148"/>
</a>
</g>
</g>
<!-- Node2&#45;&gt;Node3 -->
<g id="edge3_Node000003_Node000002" class="edge">
<title>Node2&#45;&gt;Node3</title>
<g id="a_edge3_Node000003_Node000002"><a xlink:title=" ">
<path fill="none" stroke="#63b8ff" d="M85.19,-219.91C97.03,-210.89 112.09,-199.42 124.8,-189.74"/>
<polygon fill="none" stroke="#63b8ff" points="83.16,-217.05 77.32,-225.89 87.4,-222.62 83.16,-217.05"/>
</a>
</g>
</g>
<!-- Node3&#45;&gt;Node1 -->
<g id="edge2_Node000001_Node000003" class="edge">
<title>Node3&#45;&gt;Node1</title>
<g id="a_edge2_Node000001_Node000003"><a xlink:title=" ">
<path fill="none" stroke="orange" d="M133.01,-138.51C119.65,-116.56 101.41,-86.59 87.8,-64.23"/>
<polygon fill="orange" stroke="orange" points="129.98,-140.27 138.16,-146.99 135.96,-136.63 129.98,-140.27"/>
</a>
</g>
<text xml:space="preserve" text-anchor="start" x="129.64" y="-117.5" font-family="Helvetica,sans-Serif" font-size="10.00" fill="grey">&lt; BasicJsonType, Compatible</text>
<text xml:space="preserve" text-anchor="start" x="129.64" y="-102.25" font-family="Helvetica,sans-Serif" font-size="10.00" fill="grey">  Type, enable_if_t&lt; is_complete</text>
<text xml:space="preserve" text-anchor="start" x="129.64" y="-87" font-family="Helvetica,sans-Serif" font-size="10.00" fill="grey">  _type&lt; CompatibleType &gt;::value &gt; &gt;</text>
</g>
</g>
</svg>
